<mxfile host="65bd71144e">
    <diagram name="Page-1" id="pYIBakNFRsvm6qMD3WfW">
        <mxGraphModel dx="1299" dy="1624" grid="1" gridSize="10" guides="1" tooltips="1" connect="1" arrows="1" fold="1" page="1" pageScale="1" pageWidth="827" pageHeight="1169" math="0" shadow="0">
            <root>
                <mxCell id="0"/>
                <mxCell id="1" parent="0"/>
                <mxCell id="LO5UBEyFP2jZVA9CkqRd-10" value="" style="rounded=0;whiteSpace=wrap;html=1;strokeWidth=7;fillColor=#fff2cc;strokeColor=#000000;" parent="1" vertex="1">
                    <mxGeometry x="-143.19" y="-210" width="1040" height="870" as="geometry"/>
                </mxCell>
                <mxCell id="MfYopfng2UjAwjtcQSiA-102" value="" style="shape=step;perimeter=stepPerimeter;whiteSpace=wrap;html=1;fixedSize=1;fillColor=#B64C49;strokeColor=#d79b00;" parent="1" vertex="1">
                    <mxGeometry x="30" width="820" height="410" as="geometry"/>
                </mxCell>
                <mxCell id="MfYopfng2UjAwjtcQSiA-19" value="" style="rounded=1;whiteSpace=wrap;html=1;fillColor=#7CB649;" parent="1" vertex="1">
                    <mxGeometry x="68" y="30" width="702" height="350" as="geometry"/>
                </mxCell>
                <mxCell id="MfYopfng2UjAwjtcQSiA-2" value="&lt;pre&gt;sila-prod-bucket&lt;/pre&gt;" style="sketch=0;points=[[0,0,0],[0.25,0,0],[0.5,0,0],[0.75,0,0],[1,0,0],[0,1,0],[0.25,1,0],[0.5,1,0],[0.75,1,0],[1,1,0],[0,0.25,0],[0,0.5,0],[0,0.75,0],[1,0.25,0],[1,0.5,0],[1,0.75,0]];outlineConnect=0;fontColor=#232F3E;fillColor=#7AA116;strokeColor=#ffffff;dashed=0;verticalLabelPosition=bottom;verticalAlign=top;align=center;html=1;fontSize=12;fontStyle=0;aspect=fixed;shape=mxgraph.aws4.resourceIcon;resIcon=mxgraph.aws4.s3;" parent="1" vertex="1">
                    <mxGeometry x="120" y="130" width="78" height="78" as="geometry"/>
                </mxCell>
                <mxCell id="MfYopfng2UjAwjtcQSiA-17" value="Dedicated Network" style="points=[[0,0],[0.25,0],[0.5,0],[0.75,0],[1,0],[1,0.25],[1,0.5],[1,0.75],[1,1],[0.75,1],[0.5,1],[0.25,1],[0,1],[0,0.75],[0,0.5],[0,0.25]];outlineConnect=0;gradientColor=none;html=1;whiteSpace=wrap;fontSize=12;fontStyle=0;container=1;pointerEvents=0;collapsible=0;recursiveResize=0;shape=mxgraph.aws4.group;grIcon=mxgraph.aws4.group_security_group;grStroke=0;strokeColor=#7AA116;fillColor=#F2F6E8;verticalAlign=top;align=left;spacingLeft=30;fontColor=#248814;dashed=0;" parent="1" vertex="1">
                    <mxGeometry x="230" y="60" width="480" height="280" as="geometry"/>
                </mxCell>
                <mxCell id="MfYopfng2UjAwjtcQSiA-15" value="" style="group" parent="MfYopfng2UjAwjtcQSiA-17" vertex="1" connectable="0">
                    <mxGeometry x="75" y="40" width="330" height="200" as="geometry"/>
                </mxCell>
                <mxCell id="MfYopfng2UjAwjtcQSiA-3" value="&lt;pre&gt;sila-prod.api&lt;/pre&gt;" style="sketch=0;points=[[0,0,0],[0.25,0,0],[0.5,0,0],[0.75,0,0],[1,0,0],[0,1,0],[0.25,1,0],[0.5,1,0],[0.75,1,0],[1,1,0],[0,0.25,0],[0,0.5,0],[0,0.75,0],[1,0.25,0],[1,0.5,0],[1,0.75,0]];outlineConnect=0;fontColor=#232F3E;fillColor=#ED7100;strokeColor=#ffffff;dashed=0;verticalLabelPosition=bottom;verticalAlign=top;align=center;html=1;fontSize=12;fontStyle=0;aspect=fixed;shape=mxgraph.aws4.resourceIcon;resIcon=mxgraph.aws4.ec2;" parent="MfYopfng2UjAwjtcQSiA-15" vertex="1">
                    <mxGeometry x="30" y="30" width="78" height="78" as="geometry"/>
                </mxCell>
                <mxCell id="MfYopfng2UjAwjtcQSiA-4" value="&lt;pre&gt;sila_prod_db&lt;/pre&gt;" style="sketch=0;points=[[0,0,0],[0.25,0,0],[0.5,0,0],[0.75,0,0],[1,0,0],[0,1,0],[0.25,1,0],[0.5,1,0],[0.75,1,0],[1,1,0],[0,0.25,0],[0,0.5,0],[0,0.75,0],[1,0.25,0],[1,0.5,0],[1,0.75,0]];outlineConnect=0;fontColor=#232F3E;fillColor=#C925D1;strokeColor=#ffffff;dashed=0;verticalLabelPosition=bottom;verticalAlign=top;align=center;html=1;fontSize=12;fontStyle=0;aspect=fixed;shape=mxgraph.aws4.resourceIcon;resIcon=mxgraph.aws4.rds;" parent="MfYopfng2UjAwjtcQSiA-15" vertex="1">
                    <mxGeometry x="170" y="30" width="78" height="78" as="geometry"/>
                </mxCell>
                <mxCell id="MfYopfng2UjAwjtcQSiA-13" value="" style="rounded=1;arcSize=10;dashed=1;strokeColor=#ff0000;fillColor=none;gradientColor=none;dashPattern=8 4;strokeWidth=2;" parent="MfYopfng2UjAwjtcQSiA-15" vertex="1">
                    <mxGeometry width="330" height="200" as="geometry"/>
                </mxCell>
                <mxCell id="MfYopfng2UjAwjtcQSiA-14" value="" style="sketch=0;outlineConnect=0;fontColor=#232F3E;gradientColor=none;fillColor=#8C4FFF;strokeColor=none;dashed=0;verticalLabelPosition=bottom;verticalAlign=top;align=center;html=1;fontSize=12;fontStyle=0;aspect=fixed;pointerEvents=1;shape=mxgraph.aws4.route_53_resolver_dns_firewall;" parent="MfYopfng2UjAwjtcQSiA-15" vertex="1">
                    <mxGeometry x="270" y="140" width="60" height="60" as="geometry"/>
                </mxCell>
                <mxCell id="MfYopfng2UjAwjtcQSiA-21" value="" style="aspect=fixed;sketch=0;html=1;dashed=0;whitespace=wrap;verticalLabelPosition=bottom;verticalAlign=top;fillColor=#2875E2;strokeColor=#ffffff;points=[[0.005,0.63,0],[0.1,0.2,0],[0.9,0.2,0],[0.5,0,0],[0.995,0.63,0],[0.72,0.99,0],[0.5,1,0],[0.28,0.99,0]];shape=mxgraph.kubernetes.icon2;kubernetesLabel=1;prIcon=node" parent="MfYopfng2UjAwjtcQSiA-15" vertex="1">
                    <mxGeometry x="44" y="140" width="50" height="48" as="geometry"/>
                </mxCell>
                <mxCell id="MfYopfng2UjAwjtcQSiA-24" value="" style="outlineConnect=0;dashed=0;verticalLabelPosition=bottom;verticalAlign=top;align=center;html=1;shape=mxgraph.aws3.mysql_db_instance_2;fillColor=#2E73B8;gradientColor=none;" parent="MfYopfng2UjAwjtcQSiA-15" vertex="1">
                    <mxGeometry x="188" y="141.5" width="42" height="45" as="geometry"/>
                </mxCell>
                <mxCell id="MfYopfng2UjAwjtcQSiA-35" value="" style="shape=image;verticalLabelPosition=bottom;labelBackgroundColor=default;verticalAlign=top;aspect=fixed;imageAspect=0;image=https://cdn.icon-icons.com/icons2/2415/PNG/512/react_original_wordmark_logo_icon_146375.png;" parent="1" vertex="1">
                    <mxGeometry x="135" y="250" width="48" height="48" as="geometry"/>
                </mxCell>
                <mxCell id="MfYopfng2UjAwjtcQSiA-36" value="" style="rounded=1;whiteSpace=wrap;html=1;fontSize=13;fillColor=#49B3B6;" parent="1" vertex="1">
                    <mxGeometry x="60" y="410" width="710" height="210" as="geometry"/>
                </mxCell>
                <mxCell id="MfYopfng2UjAwjtcQSiA-38" value="" style="rounded=1;whiteSpace=wrap;html=1;fontSize=13;" parent="1" vertex="1">
                    <mxGeometry x="89" y="420" width="191" height="90" as="geometry"/>
                </mxCell>
                <mxCell id="MfYopfng2UjAwjtcQSiA-39" value="" style="shape=image;verticalLabelPosition=bottom;labelBackgroundColor=default;verticalAlign=top;aspect=fixed;imageAspect=0;image=https://cdn.icon-icons.com/icons2/2415/PNG/512/react_original_wordmark_logo_icon_146375.png;fontSize=13;" parent="1" vertex="1">
                    <mxGeometry x="100" y="431" width="48" height="48" as="geometry"/>
                </mxCell>
                <mxCell id="MfYopfng2UjAwjtcQSiA-47" value="" style="aspect=fixed;sketch=0;html=1;dashed=0;whitespace=wrap;verticalLabelPosition=bottom;verticalAlign=top;fillColor=#2875E2;strokeColor=#ffffff;points=[[0.005,0.63,0],[0.1,0.2,0],[0.9,0.2,0],[0.5,0,0],[0.995,0.63,0],[0.72,0.99,0],[0.5,1,0],[0.28,0.99,0]];shape=mxgraph.kubernetes.icon2;kubernetesLabel=1;prIcon=node;fontSize=13;" parent="1" vertex="1">
                    <mxGeometry x="159.5" y="430" width="50" height="48" as="geometry"/>
                </mxCell>
                <mxCell id="MfYopfng2UjAwjtcQSiA-48" value="" style="outlineConnect=0;dashed=0;verticalLabelPosition=bottom;verticalAlign=top;align=center;html=1;shape=mxgraph.aws3.mysql_db_instance_2;fillColor=#2E73B8;gradientColor=none;fontSize=13;" parent="1" vertex="1">
                    <mxGeometry x="220" y="431" width="42" height="45" as="geometry"/>
                </mxCell>
                <mxCell id="MfYopfng2UjAwjtcQSiA-49" value="&lt;pre style=&quot;font-size: 13px;&quot;&gt;Core Application&lt;/pre&gt;" style="text;html=1;align=center;verticalAlign=middle;resizable=0;points=[];autosize=1;strokeColor=none;fillColor=none;fontSize=13;" parent="1" vertex="1">
                    <mxGeometry x="109.5" y="465" width="150" height="60" as="geometry"/>
                </mxCell>
                <mxCell id="MfYopfng2UjAwjtcQSiA-50" value="" style="rounded=1;whiteSpace=wrap;html=1;fontSize=13;" parent="1" vertex="1">
                    <mxGeometry x="300" y="420" width="90" height="90" as="geometry"/>
                </mxCell>
                <mxCell id="MfYopfng2UjAwjtcQSiA-51" value="" style="shape=image;verticalLabelPosition=bottom;labelBackgroundColor=default;verticalAlign=top;aspect=fixed;imageAspect=0;image=https://1000logos.net/wp-content/uploads/2018/11/GitHub-logo.jpg;fontSize=13;" parent="1" vertex="1">
                    <mxGeometry x="301.78" y="426" width="86.45" height="50" as="geometry"/>
                </mxCell>
                <mxCell id="MfYopfng2UjAwjtcQSiA-53" value="&lt;pre style=&quot;font-size: 13px;&quot;&gt;git&lt;/pre&gt;" style="text;html=1;align=center;verticalAlign=middle;resizable=0;points=[];autosize=1;strokeColor=none;fillColor=none;fontSize=13;" parent="1" vertex="1">
                    <mxGeometry x="320" y="465" width="50" height="60" as="geometry"/>
                </mxCell>
                <mxCell id="MfYopfng2UjAwjtcQSiA-55" value="" style="rounded=1;whiteSpace=wrap;html=1;fontSize=13;" parent="1" vertex="1">
                    <mxGeometry x="404" y="420" width="90" height="90" as="geometry"/>
                </mxCell>
                <mxCell id="MfYopfng2UjAwjtcQSiA-54" value="" style="shape=image;verticalLabelPosition=bottom;labelBackgroundColor=default;verticalAlign=top;aspect=fixed;imageAspect=0;image=data:image/jpeg,/9j/4AAQSkZJRgABAQAAAQABAAD/2wCEAAkGBwgHBgkIBwgKCgkLDRYPDQwMDRsUFRAWIB0iIiAdHx8kKDQsJCYxJx8fLT0tMTU3Ojo6Iys/RD84QzQ5OjcBCgoKDQwNGg8PGjclHyU3Nzc3Nzc3Nzc3Nzc3Nzc3Nzc3Nzc3Nzc3Nzc3Nzc3Nzc3Nzc3Nzc3Nzc3Nzc3Nzc3N//AABEIAKAAqgMBIgACEQEDEQH/xAAbAAEAAgMBAQAAAAAAAAAAAAAABQYDBAcCAf/EAEAQAAEDAwMCAgcFBAgHAAAAAAEAAgMEBREGEiETMUFRFCIyYXGBoQdCUpGxI3Jz8BU0NZKywdHhFhckYqLC8f/EABkBAQADAQEAAAAAAAAAAAAAAAABAwQFAv/EACwRAAICAQMDAwMDBQAAAAAAAAABAgMRBBIxIUFRE2HBcYHxFCLRBTKRobH/2gAMAwEAAhEDEQA/AO4oiIAiIgCITgZPZVe665tVC90cG+rkacExYDAf3j3+WVbVRZc8VrJXZdXUszeC0IqJH9pEBeBJbXhvm2YE/lgKz2XUFuvTT6HN+1aMuhkG14+Xj8QrbdFqKVunHoV16ui14hLqSiIiymgIiIAiIgCIiAIiIAiIgCIiAIiIAiIgKLrC51d0ujNOWon1iBO4HucZwT+EDk/l8d2Kk09o+CE1pbJVP7SOj3vPmQOdo/nlR32dNFZdrtcZOZDjBP8A3ucT+gXzWcUdRrS0wTN3xSNia5p8QZCCu64JWLSZajFZeOW8ZOOpN1vU4zJvCz2WcFzpKugvFJ1Kd8NTA7gjGce4g9vgVUtU6WFE3+l7Dup5af13xR+AH3m+WPEdiPrjuWkq+zzuuGmqp7doyYXOw4DyyeHD3H6qa0dqJ9+p546qJrKiDbvLPZeDnBx4djws8Yuhevp5bod18NF8mrn6N8cS7P8Ahm3pW9C92ps7gG1DDsmaOwd5j3HuphULQrfQ9T3igjP7Ju7A/cfgfRyvqy62qNVzUOH1X3NGkslZUnLnj/AREWQ0hERAEREAREQBERAEREAREQBERAc/0e8WbVdxtVQdnWdiPPiWklv5tcmvXvoNS2y5Pic6GJrDnsCWvJLc+HcKX1jpp902V9uOyvhAxg46gHI58HDwP8iOtet2RtNFqOmkZPGdrpBHnP7ze4Pw+i7sJO2a1Na3PGJLvxjJx5xVcXRN7VnMX284NVsOodZuDp3eh2wnIGCGke4d3/E8K22u127TNumdGS1gbvnmkOS7A/ngLTl1vYY49zKmSQ+DGQvz9QAq5WXC6a2qBR2+E09ua4dRzuR8XHx9zR/uK3C+5bZR9Otfb8s9qdNT3Re+x/f8I2/s7jkq7ldbtI0gSuLR8XO3EfL1fzV7WparfBaqCKjphiOMdz3cfEn3lba5+ruV1zmuO30Ru01TqqUXyERFmLwiIgCIiAIiIAiIgCIiAIiIAiIgCj7xbqKtpJTV0sMzmRuLXPYCW8eB8FILDWf1Of8Ahu/Re65OMk0zzNJxaZzb7PKW2V9TPT3Gmimn2tkh6gyCB7Qx28QumRRRwxtjhjbGxvZrBgD5LkNgtVwqKJ10tDnGpo5R6jfaIxnI8/h4j8lbKD7QKcwllzppIapgIOxuWl3w7j4Ltf1LTWXWuVT3Y5Xj7HJ0GohVWlYseH5+5v6n1ZHaJRR0kXpNccer91me2ccknyChxXa7e3rtpMM79Ppxj6E7li0OynDbjqO7PBdE8jqOBO0kZcQPP1gAp68axt1Ha2VVFKyplmB6MYOMeZd4gBeHWqZKmqpTfDbWevwe97tj6tljiuyXj5NfTusPTKv+jrvB6LW52g4LWud+Eg8tP6q2rnWp4Ki5aYpL5W0zaavY8BxjBbujJw0+Y5wR81NW7W9pNBT+nVLm1XTb1QIXn1sc9h5qnU6TelZRHu00uuGvHsWUarY9l0u2U30yn8lkrquCgpZKqqkEcMYy5x/nuqQ/VN/vM72aeoNsLDjeWhx+ZJ2j4LV1hfKfUE1vt9rnLonygPJY5vrkhre45xkq301fZrPNDZI5o4JGR5DHDA+Jd2yeSphQtPWpSr3Teej7Jd2hK132OMZ7YrHVd2/DKw7UWqbI5sl6oRJTk4LtoH/k3gfMK52m5012omVdG/LHcFp7sPiCPNV2DUz75fv6MoqOOothaWzySNPrNx7XkBngZ7qP0kHWfWVfaGOJgcHbQfdhzT/dOF7uoVlbcoKM0s9OMfTszxVc4TWJOUG8dfP17ov6Ii451AiIgCIiAIiIAiIgCw1n9Tn/AIbv0WZYaz+pz/w3fovUeUQ+Cm/ZX/Z1d/Fb/hVquNooLi13pdJDI8twJHMBcPgVVfsr/s6u/it/wq8Ld/UJSjrJuLx+DHoYqWlimjnejZoaKouGnLy1gEz8BsnAc7GCPmACP/ilbXoSkoroaqeY1EDDmGF7ex8Nx8cKQ1JpajvoEpd0KtowJmjO4eTh4qAGltUxt6EV7HQHA/6mQHHwx/mtX6iN2Zwt2OX9yf8A1Gb0ZVYjKvclw/5M/wBol1jkhis1KerUyyNMjW87fwt+JOOP9VK2/SFpioaeOroo5KhsbRK/J9Z2OT381403pCms8vpVRJ6VWeDy3DWZ8h5+8/RWVZbtSq4Rp08nhcvjLNNVDnJ23JZfC5wjnutrJDZxRXO1UzYmQyjqBuSN2QWk/MEfMKUuVooNZ0UFxoZmwVOA1zsbvi1w8x5/5K1VEEVTA+CojbJFINrmOGQQqVU6HrKOpdPp+5ugDvuPe5pA8tze4+IV1GqU4xUp7Zx4fOU+zKrtO4SbjDdGXK4xjuiw26ht2l7S7L2sjaN007+C9389gqzoxsl31RcL45hbCNzW58zgAfJo5+IXpmirtcJmOvt2L42n2WPdIfluwB+RV0oKKnt1JHS0cYjhYOAP1PmV5strphPE9858vskeoVztlHMdsY8L3NhERcs6AREQBERAEREAREQBeJmdSF7PxNIXtEBQ/svkETbjRSerM1zXFp7+LT+RH1V8VB1NbaywXn/iC0NzE4l07AOGk+1kfhPfPgVNUWtLTVUb5XTCnqGsJMMpxkgdgexXU1lMtRL9RUsqXPsznaW2NMfQseGv9ox6n1a21z+g2+EVNecAt5LWE9gQOSfcFEifXsjeu2Ha3v09sQ+h5T7PKZk5r75XEPma8je7nacbnu+o+quLbpSOoXVgkPRacE7TnPlj5r1Y4aWXpQrUmuW1nr7EVqWoXqTm4p8JdOnuV3T2sH1FYLbeoPRazdta7BaC7yIPYn8ireqT9oNHTVlnhu9PjqRuaOoBguYTjHyOPqp62XmE2Ggra6Xa+aJuTgnLsc8D3qnUUwnCN1UcZeGvf2LaLZRm6rHnHVP2JOpnjpoHzTO2sYMkqvm7XS4vcLZT7IwfawCfmTx8lhvtwiuclNTUchLHP9YlpHJ4Hf5qzU0EdNAyGFu1jBgBVbVRBSlHMn57Fm52yai8JeCvOuN6txD6+ASRZ5OB+re3zU9Q1kNdTiaA8Hgg92nyKzPY2RjmPaHNcMEHsQq5ZQaG/VNE0npkHAPu5H0Kftug2lhrwP3VSSbymWVERZDSEREAREQBERAEREAREQAjIweyr1w0bZa15kFO6nee5gdtH93t9FYUVld1lTzB4PE6oWLE1k57omubZ7hW2K6bYy+T1S/2S/GCPmMEf7q+Ckp205pxDGIT3Zt4KiNR6Yor60PeTDVNGGzMGcjycPEKvDSGo2N6Ed9Ip+2BPKOP3f8AddGx0ap+pv2S7r38owwV2nWzZuXZ/DMmv7nC+CGxW9okmdI3eyP7uPZb8Scfl71Z6C0QRWejoaqNsvQjaD+9jkj5qP05pGkszxUSP9Jq/CRzcBn7o8/erGqNRfBQjVS+i658stopm5Oy1dX0x4RWNQW2OibBV0UQYI3+vjJ58Cp6grIa6nbNC4c+03xafIrPIxsjHMkaHMcMEHsQoCfTkkcpkttW6HP3SSMfMKtTjbBRseGu5Y4yrk5QWU+xOVE8VNC6Wd4axvclQGn2vrbtU3FzSGchvxPh8gvrNPVM72uuNa57R4BxcfzPZT9PBFTQthgYGMb2ARuFUHGLy2Ep2STksJGRERZTQEREAREQBERAEREAREQBERAEREAREQBERAEREAREQBERAEREBDXi9S0tdBbLbS+mXGZhk6ZfsZGwcbnHnjKz2mpuksk0V1oIqdzACyWGbeyTOcjkAgjHj5qJoPV+0S6CT2nUMRiz+HOD9VtWy7XGTUVTabjBSsEdP143wPc7LS7aM5HdSQSNZPVNq6SOjED4nSEVO9+HNbjgtGe+cLZnmZBG573NGASATjKq9/t9HT6nsNVBSwx1E9Y/qytYA5/7M9z4qeu9voq+kcK6kgqBG0uYJWB2047jKA82S7Q3e201YwCMzs3CJzgXBYrVdjcLldKQwiMUMrYw4Ozvy3OcY4UToG024aftdwFDTCtMWfSOkN+Tke137LStlBW1upNRGju09CG1LNzYo2O3+p39YFAWO1Xc19wutK+FsbaCYRh+/O/IzntwpMvaGby4BuM7s8Ki2qKSGn1pFPO6okaHB0r2gF/7I84HCzXfH/KiPtj0Cn/9EwMk/crpLSXyz0LGxmGt63Uc7OW7GbhjlSkUsczd8MjJG5xljgQqnqmkhrtQaYpanmGQz7259oBgO0+44wfcV7ZR09m1tRw2yFlPBXUknXhibtZlhBa7A4zzhAWxEURqy4G16drqphPUEeyPHfe71W/UqCTU05qcXq41dKabosY0yU0m/PXjD3MLsY45b9VYXOaxpc9wa0dyTgBc6pa6jt9bpg0sdXH6O30OodLSyRtcHgc5cAPb5U7eoWXXWFDaq4b6COjfVGAn1ZX7to3Dxx3wpwRkssU0UzC+KVj2j7zXAhaEV6p5LzUW3gGGFkvVLxtduJGPoslHZbZQunNFQwQddobK2Nga14Ge4HHiVWqSwWd2sq+lda6I07KKJ7IjA3a1xc7JAx34QFzLmhu4uG3vnPC07fNVyyVfpTIBG2YinMTsl0eBy735ysslDSS0XoUlNE6l2BnRLBs2jsMdscKA0VBDS1F/gpomRRMuTg1jG4DRsb2CEljmnigAM0rIwexe4DK97m7d2RtxnOeMKpW630l71LfZrtBHVejSsp4I5mhzYmbcnAPmTnK1beDT6d1ZbmuLqajdUR04JzsYY87fgMpgjJdOvD1Gx9WPqOGQ3cMkfBZFz252eho9AU1zhgYLhFDTTtqsftN2Wfe74wcAdhx5LoSEkTeLJHcaiCshqZqOupwRFUw4zg92uB4cPcV5tNjdRV81xrK+aurZYxEZHsawNYDnAa0Y7qYRQCu1unKusq4amW+1QdTyukgAgi/Zk5H4eeDjnKmaKnlgpRDVVT6t/OZZGtaXZ9zQAtlEBCWewSWiSOOkutWaCMu20cjWOaAc8btu7AJz3W1bbTHQV9xq2Sve6ukbI9rsYaQMcKRRARdHZIKaoukpe6QXF+6VjsYHq4wPkoh+jHS2t1qqL1WSUDQBDCWsHTweMkDLseGePdwFa0U5BDXqwR3aehmdVT08lFvMTocA7iBg8+WAff4r7a7G6luElxr66WvrnR9JssjGsEbM5w1reBk9yphFACjrzaY7sKRs0r2R09SyoLG4xIW9gfcpFEBH321RXq1y0E73xtkLSHsxuaQQQR+Sw3ayMuJpp21M1NXUuejVRY3DI5BB4IPkpZEBHWqgq6R0slddJq57wAN8bWNYBns1o7nPJ9wWC42I1NyFxo7hU0NX0ui98QY4PZnIyHAjue6mEQGnUUtTLQMp4rhLDO0NBqWxsLnY7nBGOfgoq36cq6CpkmivtUevOJ52GGLEruM59XjIGOMKwogIStsEj7lLcLXcZrfUTtDajZG17ZccAlrh3A8VkpNP01LZKq2Ryyn0tsnXqHkF73vGHOPhn/RS6JkETXWKKs04LK6aRsQiji6gA3YZjB8vuqWREB//2Q==;fontSize=13;" parent="1" vertex="1">
                    <mxGeometry x="417.13" y="426" width="63.75" height="60" as="geometry"/>
                </mxCell>
                <mxCell id="MfYopfng2UjAwjtcQSiA-56" value="&lt;pre style=&quot;font-size: 13px;&quot;&gt;DevOps&lt;/pre&gt;" style="text;html=1;align=center;verticalAlign=middle;resizable=0;points=[];autosize=1;strokeColor=none;fillColor=none;fontSize=13;" parent="1" vertex="1">
                    <mxGeometry x="414" y="465" width="70" height="60" as="geometry"/>
                </mxCell>
                <mxCell id="MfYopfng2UjAwjtcQSiA-58" value="" style="rounded=1;whiteSpace=wrap;html=1;fontSize=13;" parent="1" vertex="1">
                    <mxGeometry x="510" y="421" width="140" height="89" as="geometry"/>
                </mxCell>
                <mxCell id="MfYopfng2UjAwjtcQSiA-60" value="" style="shape=image;verticalLabelPosition=bottom;labelBackgroundColor=default;verticalAlign=top;aspect=fixed;imageAspect=0;image=https://upload.wikimedia.org/wikipedia/commons/thumb/8/8a/Jira_Logo.svg/1024px-Jira_Logo.svg.png;fontSize=13;" parent="1" vertex="1">
                    <mxGeometry x="520" y="426" width="33.26" height="14" as="geometry"/>
                </mxCell>
                <mxCell id="MfYopfng2UjAwjtcQSiA-61" value="" style="shape=image;verticalLabelPosition=bottom;labelBackgroundColor=default;verticalAlign=top;aspect=fixed;imageAspect=0;image=https://upload.wikimedia.org/wikipedia/commons/thumb/8/88/Atlassian_Confluence_2017_logo.svg/2560px-Atlassian_Confluence_2017_logo.svg.png;fontSize=13;" parent="1" vertex="1">
                    <mxGeometry x="520" y="447" width="112" height="14" as="geometry"/>
                </mxCell>
                <mxCell id="MfYopfng2UjAwjtcQSiA-62" value="" style="shape=image;verticalLabelPosition=bottom;labelBackgroundColor=default;verticalAlign=top;aspect=fixed;imageAspect=0;image=https://download.logo.wine/logo/Markdown/Markdown-Logo.wine.png;fontSize=13;" parent="1" vertex="1">
                    <mxGeometry x="599" y="422" width="33" height="22" as="geometry"/>
                </mxCell>
                <mxCell id="MfYopfng2UjAwjtcQSiA-64" value="&lt;pre style=&quot;font-size: 13px;&quot;&gt;Documentation&lt;/pre&gt;" style="text;html=1;align=center;verticalAlign=middle;resizable=0;points=[];autosize=1;strokeColor=none;fillColor=none;fontSize=13;" parent="1" vertex="1">
                    <mxGeometry x="515" y="465" width="130" height="60" as="geometry"/>
                </mxCell>
                <mxCell id="MfYopfng2UjAwjtcQSiA-65" value="" style="image;points=[];aspect=fixed;html=1;align=center;shadow=0;dashed=0;image=img/lib/allied_telesis/computer_and_terminals/Personal_Computer_with_Server.svg;" parent="1" vertex="1">
                    <mxGeometry x="-40" y="134" width="70" height="70" as="geometry"/>
                </mxCell>
                <mxCell id="MfYopfng2UjAwjtcQSiA-66" value="&lt;pre&gt;User&lt;/pre&gt;" style="shape=umlActor;verticalLabelPosition=bottom;verticalAlign=top;html=1;outlineConnect=0;" parent="1" vertex="1">
                    <mxGeometry x="-110" y="140" width="30" height="60" as="geometry"/>
                </mxCell>
                <mxCell id="MfYopfng2UjAwjtcQSiA-68" value="" style="rounded=1;whiteSpace=wrap;html=1;" parent="1" vertex="1">
                    <mxGeometry x="660" y="420" width="100" height="86.5" as="geometry"/>
                </mxCell>
                <mxCell id="MfYopfng2UjAwjtcQSiA-67" value="" style="shape=image;verticalLabelPosition=bottom;labelBackgroundColor=default;verticalAlign=top;aspect=fixed;imageAspect=0;image=data:image/jpeg,/9j/4AAQSkZJRgABAQAAAQABAAD/2wCEAAkGBwgHBgkIBwgKCgkLDRYPDQwMDRsUFRAWIB0iIiAdHx8kKDQsJCYxJx8fLT0tMTU3Ojo6Iys/RD84QzQ5OjcBCgoKDQwNGg8PGjclHyU3Nzc3Nzc3Nzc3Nzc3Nzc3Nzc3Nzc3Nzc3Nzc3Nzc3Nzc3Nzc3Nzc3Nzc3Nzc3Nzc3N//AABEIAMAAzAMBEQACEQEDEQH/xAAcAAEAAQUBAQAAAAAAAAAAAAAABgEEBQcIAwL/xABGEAABAwMBBQUEBQgHCQAAAAABAAIDBAURBgcSITFBE1FhgZEUcaGxFSIyQlIjcnOCkqKywRckNENiY9EWM0RTVJPS4fH/xAAaAQEAAwEBAQAAAAAAAAAAAAAAAQIDBAUG/8QALxEBAAIBAwMBBgYCAwAAAAAAAAECAwQRMQUSIVETIjJBkaEVQnGBsdEzUkNT8P/aAAwDAQACEQMRAD8A3ggICAgICAgICAgICAgICAgICAgICAgICAgICAgICAgICAgICAgICAgICAgICAgICAgICAgICAgICAgICAgICAgICAgICAgICAgICAgICAgICAgICAgICAgICAgICAgICAgICAgICAgICAgICAgICAgICAgICAgICAgICAgICAgICAgICAg86ieGmjMlRKyJjRkuecAIhErhtN0lQO3DdG1DuX9VjdKPVoIVorMm8Md/TBpjIGK4DvNOf/qnslHdDK2raNpa6StihubYZXHDWVMbocnuG8BnyUdkpiUsa4OALSCCOBCql4V9ZTUFK+qrZ46enjGXyyuDWtHiU2GIj1ppaSRrI9RWtz3Hda0VbCST05psM805GQc+KCqCzudzoLVTipudZT0kG9u9pPIGNyeQyU2GOpdYaaq546elv9tlnkO6yNlSxznHuABTYZwKBVSLK6XW32mFs90raejhJ3RJPIGAnuyU2FlQaq09cqplLb73b6mof9mKKoa5x8gUGZCDGXu/2mxxiS7XCClB+y2R4DnHwHMqYg3RSba5pZhIifWygfeZSub/ABAK3ZKvdD2otq2k6mQMfWzU5PWene1v7WMBOyTuhLrZcqG6UwqLbVwVUJ5PheHD4Kiy7QEBBVAQUcMoOadb1lzvmrLjTzS1FW2KrfHDTty5rA04GGjh5+K2r4hnMrm3bN9VV7Q8W3sGH/qJAw+id8Havp9kuqI270TKSQ/hEwHzUd8HbKI3e0V1oqjS3Wkkp5cfZkHBw8D1CvExPCPKd7JdZVNDdIbFcJnSUNSd2nLzkwv57ufwnj7vNUvXxutEts6utgvGmrjQdZYDucPvDiPiFnWfK08OXnt3g5krcdHju6Fb8snS+zq6OvGjLXVSO3phCIpT3vZ9V3xBWEx5axwkZUbpaV2815mvVqtjSd2ngdO9vQued1vnhj/VaUhSzV5JAy0kEcQRzHj6rTZR1Xp64C62Ogrx/wARTskI7iRxHqsJ5axwvyoS0XtxuXtWpaS3gkso6ffI6Fzz8wG/vLWkbQzs8Ni1rNbqt1Y9pMdDCXZPIudwHml58FeWzNo+rBpazB1OGvr6kllO13ENOOLj4BUrXda07Of3ur71ct+Qz1twqHYBxvPefDw8Oi14hTlMKHZNqapia+ZtNTZ4hskmT8FXvhPbJV7J9UQNLomUtRjoyUA/FT3wdsrXQ1vvVh1/a4pqSqpHSylkzS0gSM3Hfa6EdUtMTBWJ3dEtWLRVAQEBBQoLaChpIJ5J4KWGOaQ5fIyMBzveU3FyEAoIRtdtMVw0bVVLmDt6EdvG7HEY5jzVqTtKtuHP8NR7HNFUjgYJGzD9VwP8lszdZU7y+nikPNzAfULnbOa9f2v6H1dcqRrcRuk7WIY4bruIC2rPhnMNi7Bblv2y52xzsmnnbOwdzJB/5NcfNUvG0rVbUKos5o2j3IXPW15n38xRTGBh7hGA0/vBx81tWPDOeVnqSzPssluZKC01dtgq3Z+694O83yI+Kms7olufYtX+16MZTuP16Od8RHXBO8P4j6LK8bSvXhO3kAZPJVWcuasuJu2qbrXBx3Zalwb+Y36gI94bnzW9Y8M5ny3HsWtPsOlXVsjcSV0pkz/hHBqyvO8rVhD9urpDqW3hw+o2lduebhn+Svj+aLrbYk+kbq2UVJb27qc+z578/Wx5YS/CK8t9DksmiqD5cASCQDjl4IKhBVAQEBAQYu+3+2WCk9qu1WyCPk0Hi5x7gOZUxEyiZiEArts9tjlLaG11k7RykfusB8ic/BXjHKvfC2i21xZ/K2SbH+XK0n44T2Z3moNqNkvml7lQNgq6apqIHMjZLHkEnxbkBIpO5N42acqhiml79w/Ja/NSHW9F/Yqf9E35BczZqbbvat2W3XdjSQQaeQgcurSfj6LTHKlka2PXL2DXEEL3YZXQvp93pvAb7T+679pTeN4RXlvu51sduttXXTf7qmhfM73NBJ+Syhpu5atdHLe7vSUUpLpK+qZHK4c/ruG870JK2nxDKOW1tvNu/qVmuUbMdjK+ldgcmvG8PQx4/WVaLWWGwev7O63S3uPCaFszePVpwf4/gmSCrZutLn9D6VudeCA+Knd2YPV5GGj1wFSvK08OZKGjfU1FPRQZc+RzYmgc+PBb7snVlqoo7dbaaiiADIImxjHgFzzy1jhDdrWlJtQWmOroGb9dRZLWDnIw/aaPHr5K9J2lFo3aFY6WmqGujdLDPE7IcCWvY4fEFas0+sO1q929rYbnDFcYm8N8nckx355E+irNKzwt3p7ZtqumrjhlTNJbpTzbVNw0frD6vxWc0lbuTenniqImywSMkjdxDmHIKqs9UBAQEBBj9QXSGy2aruVTkx00ZkLRzcRyA8SeCmBzHfbzW325S3G5Sl8z84b92Jv4W+HzW8RtDKZ3TnSGyqpvNFFX3aqfSQSjejiY0F5b3nPJZzfZaKpZ/Q7YNzAqa3Pf2ij2knYjmrNlNLZrNWXSlukzhTRmQxSxjiB4hTF95Jq1VU/2aXwY75LT5qfN1xQ/2Kn/AETfkudsj+0m1fS+jrhC1oMsTO3j/Obx+WVNZ2lE8OcrbXutlyo7kzINLOyY46hrgSPMAjzW0wyhvza1c202gqjs38a50cDCOocd537rXLKseWluGstjlv8Ab9c08zmndoIJKg928R2YH75Pkr34Vq2ztSt30loS6xtaXSQRe0s78xkP+IaR5rOs+V5aV2bXH6N1ta5ifqSSdg73PG7n1I9FtbzDOvLZG3a49hp6jtzT9asqQ57e9jPrfxbnqs6QvbhCNkNq+ktZQzObmKiYZyfHk34q158K15dCBZNA80EY1HoWw6hLpKyk7KoP9/Adxx9/epi0wiY3a+vGxqthy+zXCOoA5R1Dd13qOCv3wp2eiAXuwXWwyiO7UUsGeAeeLHe48leJiUTEwv8ARerqzSdex8b3utznf1mmJOC3q5o6O6+PyWr3JiXSlNNHUU8c8Lg6ORoexw6g8QsGj1QEBAQQPbY57dBVAbnBqIA7Hd2jVenKtmhKYD2qASD6hlZve7IW0s3WVOIxEwQ47PdAbjljHBczaHqgg+167Q2/R1TSucO3rh2MbevHmfIK1I3lW3Dnip400uB9x3yW8cs4dbW1wfQUz2nIMLSPRczZ7yNa5ha4AtcMEHqEHLOp7YbNqG4W48oZnBuerTxB9MLeJ3hjLOaq1AbnovSlDvEvp4JO3BPHLD2TT5hrj5qIr5laZ8JrsEt+7Q3e5uaQZp2Uzc/hY3eOPOTHkq5E0bSmY2aJ8Ujcse0tcD1BHFZ/NdyjPTy2a5S0xLhLQVDot7rmNxGfhnzW8TuylLdrF8bfNRUjoXZhgoY3NA+6+Qb7h6biikbQm0p5sPtXs2n6i5SNw+slw3P4G8Picql58rVhskKiyqAgIMVqeipLhYa6nrmNdCYHk7w+yQCc+SmJ8oly0cbxxxHf3+K3ZS6W2cb/APsHYe05+wxY926MfBY25awkiqkQEBBhdZ2Uah01XWvIa+aP8k48hIOLT+0ApidpJjdzHVU81JUy0tZE6GeJxZIx3NpC35YtiaW2s1Vpt8VFdaB1ayJobHLG8B+OgIPDh3qns91osyFx2zvewi2WYseeTqiUcPHDc5T2fqd6J263ah2jXmSolmMu4071Q8Yji7mtHvU7xU2mUXqaeWlqZaaobuzQvLHtPQhWVb+2P3iW7aPhZO1+/RuNOJHcpGjkQevAgHxysbx5a14TcqqWkNudq9nvlJc2s+rVw7jyPxs/9Eei0pKloa0J4eAC0UdI7L7d9G6FtMThiSaL2mQHmDIS/HlvAeSwty1jhKSoS512tW/2DXda5oO5WRx1LfeRuH4sz5rak7wztyiLGSTSNjaS6RxDB14ngFbfZV1Rp22stFjobexoaIIWtIH4scfjlYTy1jhkHKEtJ7TtSX6x67d9HV81PEKaNzI8ZY/i7PA8+i1rETClpmJfVs2zXCFjWXS2QTkDjJA8tJ/VPD4pOOEd0sp/TXQ7ufoOt3v0kePmo9mnvRXVm0y66gpH0VPAyho5ODw1xc947ieimKbImyP6R0zVaqusdFA1zaYOzUzjlEzqPzscvflTadoREbunKSCOmpooIGhsUTQxjR0AHALFq9UBBRAQUKCM6p0NZtTkS1sLo6pow2phOH+ff5q0WmETXdCZdirRJ+QvTyz/ADIhn4KfaK9jJWnY5aKaUSXGtqa3HHs+DG/Dik3lMVbBoaGlttKymoaeOCFnBrI24AVFkcvWz+w3y8MulbTvMuB2rGuw2XHLeHVWi0q9qUUlNBRwNp6WJkUTBhrGDAAVVnsgw+qNO27U1A2iukT3Rtf2jHRuLXNcO4hTEzBsijNkGmN4GQVj25GWmd2D4HwVu+VYqn8TGxsDGANa0YDRyA6Kiz7QRvVmi7RqqSnlubJRLThzY5IpC04OMg458laLTHCJjdi7Vsu05bLhBWxsqZZIHh7GyTEt3hyyOqTeZRFdk3aqrKoMVftPWq/QdjdaOOcD7LiMOb7j0UxMwiY3QS4bGbXK4m3XGrph0Y7Dx6nirxk9Vez0Ys7FarPC9Q7v6A5+ae0O1lLZsatkMgdcrhU1TesbMMafMcVE39DtbDtNpoLPSNpLbTR08LfusbjPvVN9116EFUFEFUBAyEBAQEBAQEBAQEBAQEBAQEBAQMoPlz2sGXuDfecKJtEcymImeHmamn/58X7YVfa0/wBoW9lf/WX2yRj/ALD2u9xyrRaJ4lWazHMPtSgQUQW1xfUR0cj6RgfMBlrT1WGptlrimcUb2a4a0teIyTtDE27UMEruyqx2E3I55E/yXm6XrGPJ7uWO2zszdOvX3sXmGdY4OAc0hwPIhevExPmHnzG0+X0rIEBAQAgICAgICAgBBVBRAQfL3boJwTgcgotO0TJEbzsjFXcrvVvcyipZYmdDuYcfVfO59brs0zGGkxH6f29nFpdLijfLaJljX2u8TEukhneTz3nD/VedbQ9QyfFWZ/eP7dcarS14mHhLaa+FpdJSPDfAA/Jc9+naqkb2pLWurwXnxfytY5pojvRSOZjuOOKwplyY/NZmGtqVv4tG7YdtkdNQU8r/ALb42ud7yAvvNNeb4aWtzMR/D5XNWKZbVjjeVyt2YgFBhbzY4q4GWL8nUD73R3vXk6/plNTHdXxb+XdpddbD7tvMI4ypuNon7Iucwjmx3FpXz9c+r0Fu2fH68PXnFp9VXfn+WbotTwPwKuMxO/E3iF7Om65iv4yx2z9nnZumZK/453hnKaphqW70EjXjwK9jHmpkjek7vOvjtSdrQ9lqoICAgICAgICAgICAgIPiaWOJhdK9rG97jhUvetI3tO0LVrNp2rHlharUlFCd2Lem7y3gAvLz9Z0+Odo8u7H03NeN58MtTzMnp2TMzuvbvDPcvSxZa5McXrxLivSaWms/Jr2Vonq3NiHF78NHvPBfB5K+0zzFfnPh9VWe3HEz8obFp2COBkbeTWgegX32OvbSIfKXnutNvV6K6qqAgoeSC1raKCtj7OojDh0PUe4rnz6bHnr25K7tcWa+Kd6Silz07UUhMlPmaLnwH1h/qvmdZ0bLh97F70fd7en6jTJ4v4liGPkheTG9zHg8cHBXk1vfFPjeJd9oraPMbwylNqKvg4Pc2Udzxx9V6eDrWox/F7ziydNw34jZlqfVNO7HtEL4z3t4hepi67hn44mHDfpWSPgndk4LvQT/AGKlgJ6O4L0cWv0+X4bQ476TNTmq9jkZJxje1w/wnK6q3rbiWE1mvMPtWQICAgZCAgo5waMuIA7yVEzEcpiJnhZ1FzooOMtTGPcc/Jc+TV4Mfm14htTTZr8VljZ9TUceexZJKfQLzsvW9PWPG8uqnS8s+bbQxVVqWslyImshHhxK8zN1zPfxjjZ3Y+mYq+bTuxbn1VdNul0k0h5N5rzJvn1NtvNpl2xXFhrxtDP2rTeCJa/B7ohy817ui6LFZi+fn0/t5ep6lvHbi+rMXeoFFapntG7hu60d2V62tzV0+ntb9nBpcfts0RKNaYojU3ATObmOH6xz+LoP5r5zo2mnLn9pbiv8/wDvL2Oo5ox4u2OZTVvJfYPnlUFEBAQEFCgx9ws9JXAmSLdk/GzgVw6np+DUfFXafV04NXlw8SjtdpqsgJdTETsHTk5fP6nomes7457o+71sPUsV/jjaWGlikhduzMcx3c4YXj5MV8c7Xrs9Gl63+Gd3zwWcLS+mvezG45zfccLSuS9Y92ZVmsT8lwy510fBtXMB3by6a9Q1URtF5Y20uG0+awuGX+5M/v8APvaCumOsayI+L7Mp0Gnn5PQajuXWVh/UCn8b1frH0V/DtP6fc/2juR5SR/sBPxvWesfQ/DtP6fd8u1Bcnf34H5rAFWes6yfmmOn6f0+63fdrg/nVy47g5Y26lqrc3lpGkwV/LC2fNNIcvke4/nFc1s+S3M/dtFK14h8HxCxaPampKirOKeB8g5ZA4DzW+DTZs3+Ou7LJmx4/Np2Zyh0tI4h1bLut/Azn6r3NN0KZ2nNP7R/bzc3VKx/jr59Uio6Gno2BtPC1nj1PmvfwaXDgjbHXZ5OXPkyzvey5C3hkj2pRUVtXT0FNG4/fc7HDz9y8Pq0Zc96YMccvU0E48NLZbyy1roY7fSNhj444ud+I9SvU0mmpp8UUq4dRntmyTey8XSxEBAQEBAQVQUKDxmp4ZxiaNrx3OblZ3xUyRtesStW9q/DLF1OmqCY5ja+E/wCA8PQrzM3RdNk8xvX9Hbj6jnp4md2Mn0pM3JgqWu7g9uPivOydAvHwXj93ZTq1Z+Oqyk09c2H6sLX/AJjx/PC48nRtXWfFd/0n+3RXqOnt89lu+03GP7VJL6Z+S57dN1VeaS2jV4J4tDzNBWg8aSo/7R/0WU6PUf8AXP0lpGfF/vH1gFvrXcqOfzjKmNFqZ/45+iJ1GKPzx9XsyzXJ/wBmjk8yB81tXpmrtxSfsztrNPHNl1Fpq4SfabHGOu8/j8F1V6Hqbc7Qwt1LTxxvK+h0nxzUVJI7o24+a7cfQI/Pf6Q5rdVn8tfuydPYLfTkEQb7u+Q5+C9LD0rS4vy7/q48mvz5PzbfoybGhgw1oaO4BehWIiNohyTMzy+lKBAQUxxzjio287nlUKQQEFUBAQEBAQEBAQEBAQEBAQEBAQEBAQEBAQEBBRAQEBAQEBAQEBAQEBAQEBAQAgICAgICAgICCqCiAgqgICCiCqCiAgqEBBRAQVCAgogICCqCiAgIKoKICCqAgICAgICAgICAgICAgICAgICAgICAgICAgICAgICAgICAgICCiAEBACCqAgICCiAgIKhAQEBB/9k=;" parent="1" vertex="1">
                    <mxGeometry x="683.4300000000001" y="426" width="53.13" height="50" as="geometry"/>
                </mxCell>
                <mxCell id="MfYopfng2UjAwjtcQSiA-70" value="&lt;pre style=&quot;font-size: 12px;&quot;&gt;CloudProvider&lt;/pre&gt;" style="text;html=1;align=center;verticalAlign=middle;resizable=0;points=[];autosize=1;strokeColor=none;fillColor=none;fontSize=13;" parent="1" vertex="1">
                    <mxGeometry x="650" y="470" width="120" height="50" as="geometry"/>
                </mxCell>
                <mxCell id="MfYopfng2UjAwjtcQSiA-72" value="" style="rounded=1;whiteSpace=wrap;html=1;fontSize=13;fillColor=#8349B6;" parent="1" vertex="1">
                    <mxGeometry x="68" y="-170" width="702" height="170" as="geometry"/>
                </mxCell>
                <mxCell id="MfYopfng2UjAwjtcQSiA-73" value="" style="shape=image;verticalLabelPosition=bottom;labelBackgroundColor=default;verticalAlign=top;aspect=fixed;imageAspect=0;image=data:image/jpeg,/9j/4AAQSkZJRgABAQAAAQABAAD/2wCEAAkGBwgHBgkIBwgKCgkLDRYPDQwMDRsUFRAWIB0iIiAdHx8kKDQsJCYxJx8fLT0tMTU3Ojo6Iys/RD84QzQ5OjcBCgoKDQwNGg8PGjclHyU3Nzc3Nzc3Nzc3Nzc3Nzc3Nzc3Nzc3Nzc3Nzc3Nzc3Nzc3Nzc3Nzc3Nzc3Nzc3Nzc3N//AABEIAKAAqgMBIgACEQEDEQH/xAAbAAEAAgMBAQAAAAAAAAAAAAAABQYDBAcCAf/EAEAQAAEDAwMCAgcFBAgHAAAAAAEAAgMEBREGEiETMUFRFCIyYXGBoQdCUpGxI3Jz8BU0NZKywdHhFhckYqLC8f/EABkBAQADAQEAAAAAAAAAAAAAAAABAwQFAv/EACwRAAICAQMDAwMDBQAAAAAAAAABAgMRBBIxIUFRE2HBcYHxFCLRBTKRobH/2gAMAwEAAhEDEQA/AO4oiIAiIgCITgZPZVe665tVC90cG+rkacExYDAf3j3+WVbVRZc8VrJXZdXUszeC0IqJH9pEBeBJbXhvm2YE/lgKz2XUFuvTT6HN+1aMuhkG14+Xj8QrbdFqKVunHoV16ui14hLqSiIiymgIiIAiIgCIiAIiIAiIgCIiAIiIAiIgKLrC51d0ujNOWon1iBO4HucZwT+EDk/l8d2Kk09o+CE1pbJVP7SOj3vPmQOdo/nlR32dNFZdrtcZOZDjBP8A3ucT+gXzWcUdRrS0wTN3xSNia5p8QZCCu64JWLSZajFZeOW8ZOOpN1vU4zJvCz2WcFzpKugvFJ1Kd8NTA7gjGce4g9vgVUtU6WFE3+l7Dup5af13xR+AH3m+WPEdiPrjuWkq+zzuuGmqp7doyYXOw4DyyeHD3H6qa0dqJ9+p546qJrKiDbvLPZeDnBx4djws8Yuhevp5bod18NF8mrn6N8cS7P8Ahm3pW9C92ps7gG1DDsmaOwd5j3HuphULQrfQ9T3igjP7Ju7A/cfgfRyvqy62qNVzUOH1X3NGkslZUnLnj/AREWQ0hERAEREAREQBERAEREAREQBERAc/0e8WbVdxtVQdnWdiPPiWklv5tcmvXvoNS2y5Pic6GJrDnsCWvJLc+HcKX1jpp902V9uOyvhAxg46gHI58HDwP8iOtet2RtNFqOmkZPGdrpBHnP7ze4Pw+i7sJO2a1Na3PGJLvxjJx5xVcXRN7VnMX284NVsOodZuDp3eh2wnIGCGke4d3/E8K22u127TNumdGS1gbvnmkOS7A/ngLTl1vYY49zKmSQ+DGQvz9QAq5WXC6a2qBR2+E09ua4dRzuR8XHx9zR/uK3C+5bZR9Otfb8s9qdNT3Re+x/f8I2/s7jkq7ldbtI0gSuLR8XO3EfL1fzV7WparfBaqCKjphiOMdz3cfEn3lba5+ruV1zmuO30Ru01TqqUXyERFmLwiIgCIiAIiIAiIgCIiAIiIAiIgCj7xbqKtpJTV0sMzmRuLXPYCW8eB8FILDWf1Of8Ahu/Re65OMk0zzNJxaZzb7PKW2V9TPT3Gmimn2tkh6gyCB7Qx28QumRRRwxtjhjbGxvZrBgD5LkNgtVwqKJ10tDnGpo5R6jfaIxnI8/h4j8lbKD7QKcwllzppIapgIOxuWl3w7j4Ltf1LTWXWuVT3Y5Xj7HJ0GohVWlYseH5+5v6n1ZHaJRR0kXpNccer91me2ccknyChxXa7e3rtpMM79Ppxj6E7li0OynDbjqO7PBdE8jqOBO0kZcQPP1gAp68axt1Ha2VVFKyplmB6MYOMeZd4gBeHWqZKmqpTfDbWevwe97tj6tljiuyXj5NfTusPTKv+jrvB6LW52g4LWud+Eg8tP6q2rnWp4Ki5aYpL5W0zaavY8BxjBbujJw0+Y5wR81NW7W9pNBT+nVLm1XTb1QIXn1sc9h5qnU6TelZRHu00uuGvHsWUarY9l0u2U30yn8lkrquCgpZKqqkEcMYy5x/nuqQ/VN/vM72aeoNsLDjeWhx+ZJ2j4LV1hfKfUE1vt9rnLonygPJY5vrkhre45xkq301fZrPNDZI5o4JGR5DHDA+Jd2yeSphQtPWpSr3Teej7Jd2hK132OMZ7YrHVd2/DKw7UWqbI5sl6oRJTk4LtoH/k3gfMK52m5012omVdG/LHcFp7sPiCPNV2DUz75fv6MoqOOothaWzySNPrNx7XkBngZ7qP0kHWfWVfaGOJgcHbQfdhzT/dOF7uoVlbcoKM0s9OMfTszxVc4TWJOUG8dfP17ov6Ii451AiIgCIiAIiIAiIgCw1n9Tn/AIbv0WZYaz+pz/w3fovUeUQ+Cm/ZX/Z1d/Fb/hVquNooLi13pdJDI8twJHMBcPgVVfsr/s6u/it/wq8Ld/UJSjrJuLx+DHoYqWlimjnejZoaKouGnLy1gEz8BsnAc7GCPmACP/ilbXoSkoroaqeY1EDDmGF7ex8Nx8cKQ1JpajvoEpd0KtowJmjO4eTh4qAGltUxt6EV7HQHA/6mQHHwx/mtX6iN2Zwt2OX9yf8A1Gb0ZVYjKvclw/5M/wBol1jkhis1KerUyyNMjW87fwt+JOOP9VK2/SFpioaeOroo5KhsbRK/J9Z2OT381403pCms8vpVRJ6VWeDy3DWZ8h5+8/RWVZbtSq4Rp08nhcvjLNNVDnJ23JZfC5wjnutrJDZxRXO1UzYmQyjqBuSN2QWk/MEfMKUuVooNZ0UFxoZmwVOA1zsbvi1w8x5/5K1VEEVTA+CojbJFINrmOGQQqVU6HrKOpdPp+5ugDvuPe5pA8tze4+IV1GqU4xUp7Zx4fOU+zKrtO4SbjDdGXK4xjuiw26ht2l7S7L2sjaN007+C9389gqzoxsl31RcL45hbCNzW58zgAfJo5+IXpmirtcJmOvt2L42n2WPdIfluwB+RV0oKKnt1JHS0cYjhYOAP1PmV5strphPE9858vskeoVztlHMdsY8L3NhERcs6AREQBERAEREAREQBeJmdSF7PxNIXtEBQ/svkETbjRSerM1zXFp7+LT+RH1V8VB1NbaywXn/iC0NzE4l07AOGk+1kfhPfPgVNUWtLTVUb5XTCnqGsJMMpxkgdgexXU1lMtRL9RUsqXPsznaW2NMfQseGv9ox6n1a21z+g2+EVNecAt5LWE9gQOSfcFEifXsjeu2Ha3v09sQ+h5T7PKZk5r75XEPma8je7nacbnu+o+quLbpSOoXVgkPRacE7TnPlj5r1Y4aWXpQrUmuW1nr7EVqWoXqTm4p8JdOnuV3T2sH1FYLbeoPRazdta7BaC7yIPYn8ireqT9oNHTVlnhu9PjqRuaOoBguYTjHyOPqp62XmE2Ggra6Xa+aJuTgnLsc8D3qnUUwnCN1UcZeGvf2LaLZRm6rHnHVP2JOpnjpoHzTO2sYMkqvm7XS4vcLZT7IwfawCfmTx8lhvtwiuclNTUchLHP9YlpHJ4Hf5qzU0EdNAyGFu1jBgBVbVRBSlHMn57Fm52yai8JeCvOuN6txD6+ASRZ5OB+re3zU9Q1kNdTiaA8Hgg92nyKzPY2RjmPaHNcMEHsQq5ZQaG/VNE0npkHAPu5H0Kftug2lhrwP3VSSbymWVERZDSEREAREQBERAEREAREQAjIweyr1w0bZa15kFO6nee5gdtH93t9FYUVld1lTzB4PE6oWLE1k57omubZ7hW2K6bYy+T1S/2S/GCPmMEf7q+Ckp205pxDGIT3Zt4KiNR6Yor60PeTDVNGGzMGcjycPEKvDSGo2N6Ed9Ip+2BPKOP3f8AddGx0ap+pv2S7r38owwV2nWzZuXZ/DMmv7nC+CGxW9okmdI3eyP7uPZb8Scfl71Z6C0QRWejoaqNsvQjaD+9jkj5qP05pGkszxUSP9Jq/CRzcBn7o8/erGqNRfBQjVS+i658stopm5Oy1dX0x4RWNQW2OibBV0UQYI3+vjJ58Cp6grIa6nbNC4c+03xafIrPIxsjHMkaHMcMEHsQoCfTkkcpkttW6HP3SSMfMKtTjbBRseGu5Y4yrk5QWU+xOVE8VNC6Wd4axvclQGn2vrbtU3FzSGchvxPh8gvrNPVM72uuNa57R4BxcfzPZT9PBFTQthgYGMb2ARuFUHGLy2Ep2STksJGRERZTQEREAREQBERAEREAREQBERAEREAREQBERAEREAREQBERAEREBDXi9S0tdBbLbS+mXGZhk6ZfsZGwcbnHnjKz2mpuksk0V1oIqdzACyWGbeyTOcjkAgjHj5qJoPV+0S6CT2nUMRiz+HOD9VtWy7XGTUVTabjBSsEdP143wPc7LS7aM5HdSQSNZPVNq6SOjED4nSEVO9+HNbjgtGe+cLZnmZBG573NGASATjKq9/t9HT6nsNVBSwx1E9Y/qytYA5/7M9z4qeu9voq+kcK6kgqBG0uYJWB2047jKA82S7Q3e201YwCMzs3CJzgXBYrVdjcLldKQwiMUMrYw4Ozvy3OcY4UToG024aftdwFDTCtMWfSOkN+Tke137LStlBW1upNRGju09CG1LNzYo2O3+p39YFAWO1Xc19wutK+FsbaCYRh+/O/IzntwpMvaGby4BuM7s8Ki2qKSGn1pFPO6okaHB0r2gF/7I84HCzXfH/KiPtj0Cn/9EwMk/crpLSXyz0LGxmGt63Uc7OW7GbhjlSkUsczd8MjJG5xljgQqnqmkhrtQaYpanmGQz7259oBgO0+44wfcV7ZR09m1tRw2yFlPBXUknXhibtZlhBa7A4zzhAWxEURqy4G16drqphPUEeyPHfe71W/UqCTU05qcXq41dKabosY0yU0m/PXjD3MLsY45b9VYXOaxpc9wa0dyTgBc6pa6jt9bpg0sdXH6O30OodLSyRtcHgc5cAPb5U7eoWXXWFDaq4b6COjfVGAn1ZX7to3Dxx3wpwRkssU0UzC+KVj2j7zXAhaEV6p5LzUW3gGGFkvVLxtduJGPoslHZbZQunNFQwQddobK2Nga14Ge4HHiVWqSwWd2sq+lda6I07KKJ7IjA3a1xc7JAx34QFzLmhu4uG3vnPC07fNVyyVfpTIBG2YinMTsl0eBy735ysslDSS0XoUlNE6l2BnRLBs2jsMdscKA0VBDS1F/gpomRRMuTg1jG4DRsb2CEljmnigAM0rIwexe4DK97m7d2RtxnOeMKpW630l71LfZrtBHVejSsp4I5mhzYmbcnAPmTnK1beDT6d1ZbmuLqajdUR04JzsYY87fgMpgjJdOvD1Gx9WPqOGQ3cMkfBZFz252eho9AU1zhgYLhFDTTtqsftN2Wfe74wcAdhx5LoSEkTeLJHcaiCshqZqOupwRFUw4zg92uB4cPcV5tNjdRV81xrK+aurZYxEZHsawNYDnAa0Y7qYRQCu1unKusq4amW+1QdTyukgAgi/Zk5H4eeDjnKmaKnlgpRDVVT6t/OZZGtaXZ9zQAtlEBCWewSWiSOOkutWaCMu20cjWOaAc8btu7AJz3W1bbTHQV9xq2Sve6ukbI9rsYaQMcKRRARdHZIKaoukpe6QXF+6VjsYHq4wPkoh+jHS2t1qqL1WSUDQBDCWsHTweMkDLseGePdwFa0U5BDXqwR3aehmdVT08lFvMTocA7iBg8+WAff4r7a7G6luElxr66WvrnR9JssjGsEbM5w1reBk9yphFACjrzaY7sKRs0r2R09SyoLG4xIW9gfcpFEBH321RXq1y0E73xtkLSHsxuaQQQR+Sw3ayMuJpp21M1NXUuejVRY3DI5BB4IPkpZEBHWqgq6R0slddJq57wAN8bWNYBns1o7nPJ9wWC42I1NyFxo7hU0NX0ui98QY4PZnIyHAjue6mEQGnUUtTLQMp4rhLDO0NBqWxsLnY7nBGOfgoq36cq6CpkmivtUevOJ52GGLEruM59XjIGOMKwogIStsEj7lLcLXcZrfUTtDajZG17ZccAlrh3A8VkpNP01LZKq2Ryyn0tsnXqHkF73vGHOPhn/RS6JkETXWKKs04LK6aRsQiji6gA3YZjB8vuqWREB//2Q==;fontSize=13;" parent="1" vertex="1">
                    <mxGeometry x="339.62" y="-110" width="74.38" height="70" as="geometry"/>
                </mxCell>
                <mxCell id="MfYopfng2UjAwjtcQSiA-74" value="" style="shape=image;verticalLabelPosition=bottom;labelBackgroundColor=default;verticalAlign=top;aspect=fixed;imageAspect=0;image=data:image/jpeg,/9j/4AAQSkZJRgABAQAAAQABAAD/2wCEAAkGBwgHBgkIBwgKCgkLDRYPDQwMDRsUFRAWIB0iIiAdHx8kKDQsJCYxJx8fLT0tMTU3Ojo6Iys/RD84QzQ5OjcBCgoKDQwNGg8PGjclHyU3Nzc3Nzc3Nzc3Nzc3Nzc3Nzc3Nzc3Nzc3Nzc3Nzc3Nzc3Nzc3Nzc3Nzc3Nzc3Nzc3N//AABEIAKAAqgMBIgACEQEDEQH/xAAbAAEAAgMBAQAAAAAAAAAAAAAABQYDBAcCAf/EAEAQAAEDAwMCAgcFBAgHAAAAAAEAAgMEBREGEiETMUFRFCIyYXGBoQdCUpGxI3Jz8BU0NZKywdHhFhckYqLC8f/EABkBAQADAQEAAAAAAAAAAAAAAAABAwQFAv/EACwRAAICAQMDAwMDBQAAAAAAAAABAgMRBBIxIUFRE2HBcYHxFCLRBTKRobH/2gAMAwEAAhEDEQA/AO4oiIAiIgCITgZPZVe665tVC90cG+rkacExYDAf3j3+WVbVRZc8VrJXZdXUszeC0IqJH9pEBeBJbXhvm2YE/lgKz2XUFuvTT6HN+1aMuhkG14+Xj8QrbdFqKVunHoV16ui14hLqSiIiymgIiIAiIgCIiAIiIAiIgCIiAIiIAiIgKLrC51d0ujNOWon1iBO4HucZwT+EDk/l8d2Kk09o+CE1pbJVP7SOj3vPmQOdo/nlR32dNFZdrtcZOZDjBP8A3ucT+gXzWcUdRrS0wTN3xSNia5p8QZCCu64JWLSZajFZeOW8ZOOpN1vU4zJvCz2WcFzpKugvFJ1Kd8NTA7gjGce4g9vgVUtU6WFE3+l7Dup5af13xR+AH3m+WPEdiPrjuWkq+zzuuGmqp7doyYXOw4DyyeHD3H6qa0dqJ9+p546qJrKiDbvLPZeDnBx4djws8Yuhevp5bod18NF8mrn6N8cS7P8Ahm3pW9C92ps7gG1DDsmaOwd5j3HuphULQrfQ9T3igjP7Ju7A/cfgfRyvqy62qNVzUOH1X3NGkslZUnLnj/AREWQ0hERAEREAREQBERAEREAREQBERAc/0e8WbVdxtVQdnWdiPPiWklv5tcmvXvoNS2y5Pic6GJrDnsCWvJLc+HcKX1jpp902V9uOyvhAxg46gHI58HDwP8iOtet2RtNFqOmkZPGdrpBHnP7ze4Pw+i7sJO2a1Na3PGJLvxjJx5xVcXRN7VnMX284NVsOodZuDp3eh2wnIGCGke4d3/E8K22u127TNumdGS1gbvnmkOS7A/ngLTl1vYY49zKmSQ+DGQvz9QAq5WXC6a2qBR2+E09ua4dRzuR8XHx9zR/uK3C+5bZR9Otfb8s9qdNT3Re+x/f8I2/s7jkq7ldbtI0gSuLR8XO3EfL1fzV7WparfBaqCKjphiOMdz3cfEn3lba5+ruV1zmuO30Ru01TqqUXyERFmLwiIgCIiAIiIAiIgCIiAIiIAiIgCj7xbqKtpJTV0sMzmRuLXPYCW8eB8FILDWf1Of8Ahu/Re65OMk0zzNJxaZzb7PKW2V9TPT3Gmimn2tkh6gyCB7Qx28QumRRRwxtjhjbGxvZrBgD5LkNgtVwqKJ10tDnGpo5R6jfaIxnI8/h4j8lbKD7QKcwllzppIapgIOxuWl3w7j4Ltf1LTWXWuVT3Y5Xj7HJ0GohVWlYseH5+5v6n1ZHaJRR0kXpNccer91me2ccknyChxXa7e3rtpMM79Ppxj6E7li0OynDbjqO7PBdE8jqOBO0kZcQPP1gAp68axt1Ha2VVFKyplmB6MYOMeZd4gBeHWqZKmqpTfDbWevwe97tj6tljiuyXj5NfTusPTKv+jrvB6LW52g4LWud+Eg8tP6q2rnWp4Ki5aYpL5W0zaavY8BxjBbujJw0+Y5wR81NW7W9pNBT+nVLm1XTb1QIXn1sc9h5qnU6TelZRHu00uuGvHsWUarY9l0u2U30yn8lkrquCgpZKqqkEcMYy5x/nuqQ/VN/vM72aeoNsLDjeWhx+ZJ2j4LV1hfKfUE1vt9rnLonygPJY5vrkhre45xkq301fZrPNDZI5o4JGR5DHDA+Jd2yeSphQtPWpSr3Teej7Jd2hK132OMZ7YrHVd2/DKw7UWqbI5sl6oRJTk4LtoH/k3gfMK52m5012omVdG/LHcFp7sPiCPNV2DUz75fv6MoqOOothaWzySNPrNx7XkBngZ7qP0kHWfWVfaGOJgcHbQfdhzT/dOF7uoVlbcoKM0s9OMfTszxVc4TWJOUG8dfP17ov6Ii451AiIgCIiAIiIAiIgCw1n9Tn/AIbv0WZYaz+pz/w3fovUeUQ+Cm/ZX/Z1d/Fb/hVquNooLi13pdJDI8twJHMBcPgVVfsr/s6u/it/wq8Ld/UJSjrJuLx+DHoYqWlimjnejZoaKouGnLy1gEz8BsnAc7GCPmACP/ilbXoSkoroaqeY1EDDmGF7ex8Nx8cKQ1JpajvoEpd0KtowJmjO4eTh4qAGltUxt6EV7HQHA/6mQHHwx/mtX6iN2Zwt2OX9yf8A1Gb0ZVYjKvclw/5M/wBol1jkhis1KerUyyNMjW87fwt+JOOP9VK2/SFpioaeOroo5KhsbRK/J9Z2OT381403pCms8vpVRJ6VWeDy3DWZ8h5+8/RWVZbtSq4Rp08nhcvjLNNVDnJ23JZfC5wjnutrJDZxRXO1UzYmQyjqBuSN2QWk/MEfMKUuVooNZ0UFxoZmwVOA1zsbvi1w8x5/5K1VEEVTA+CojbJFINrmOGQQqVU6HrKOpdPp+5ugDvuPe5pA8tze4+IV1GqU4xUp7Zx4fOU+zKrtO4SbjDdGXK4xjuiw26ht2l7S7L2sjaN007+C9389gqzoxsl31RcL45hbCNzW58zgAfJo5+IXpmirtcJmOvt2L42n2WPdIfluwB+RV0oKKnt1JHS0cYjhYOAP1PmV5strphPE9858vskeoVztlHMdsY8L3NhERcs6AREQBERAEREAREQBeJmdSF7PxNIXtEBQ/svkETbjRSerM1zXFp7+LT+RH1V8VB1NbaywXn/iC0NzE4l07AOGk+1kfhPfPgVNUWtLTVUb5XTCnqGsJMMpxkgdgexXU1lMtRL9RUsqXPsznaW2NMfQseGv9ox6n1a21z+g2+EVNecAt5LWE9gQOSfcFEifXsjeu2Ha3v09sQ+h5T7PKZk5r75XEPma8je7nacbnu+o+quLbpSOoXVgkPRacE7TnPlj5r1Y4aWXpQrUmuW1nr7EVqWoXqTm4p8JdOnuV3T2sH1FYLbeoPRazdta7BaC7yIPYn8ireqT9oNHTVlnhu9PjqRuaOoBguYTjHyOPqp62XmE2Ggra6Xa+aJuTgnLsc8D3qnUUwnCN1UcZeGvf2LaLZRm6rHnHVP2JOpnjpoHzTO2sYMkqvm7XS4vcLZT7IwfawCfmTx8lhvtwiuclNTUchLHP9YlpHJ4Hf5qzU0EdNAyGFu1jBgBVbVRBSlHMn57Fm52yai8JeCvOuN6txD6+ASRZ5OB+re3zU9Q1kNdTiaA8Hgg92nyKzPY2RjmPaHNcMEHsQq5ZQaG/VNE0npkHAPu5H0Kftug2lhrwP3VSSbymWVERZDSEREAREQBERAEREAREQAjIweyr1w0bZa15kFO6nee5gdtH93t9FYUVld1lTzB4PE6oWLE1k57omubZ7hW2K6bYy+T1S/2S/GCPmMEf7q+Ckp205pxDGIT3Zt4KiNR6Yor60PeTDVNGGzMGcjycPEKvDSGo2N6Ed9Ip+2BPKOP3f8AddGx0ap+pv2S7r38owwV2nWzZuXZ/DMmv7nC+CGxW9okmdI3eyP7uPZb8Scfl71Z6C0QRWejoaqNsvQjaD+9jkj5qP05pGkszxUSP9Jq/CRzcBn7o8/erGqNRfBQjVS+i658stopm5Oy1dX0x4RWNQW2OibBV0UQYI3+vjJ58Cp6grIa6nbNC4c+03xafIrPIxsjHMkaHMcMEHsQoCfTkkcpkttW6HP3SSMfMKtTjbBRseGu5Y4yrk5QWU+xOVE8VNC6Wd4axvclQGn2vrbtU3FzSGchvxPh8gvrNPVM72uuNa57R4BxcfzPZT9PBFTQthgYGMb2ARuFUHGLy2Ep2STksJGRERZTQEREAREQBERAEREAREQBERAEREAREQBERAEREAREQBERAEREBDXi9S0tdBbLbS+mXGZhk6ZfsZGwcbnHnjKz2mpuksk0V1oIqdzACyWGbeyTOcjkAgjHj5qJoPV+0S6CT2nUMRiz+HOD9VtWy7XGTUVTabjBSsEdP143wPc7LS7aM5HdSQSNZPVNq6SOjED4nSEVO9+HNbjgtGe+cLZnmZBG573NGASATjKq9/t9HT6nsNVBSwx1E9Y/qytYA5/7M9z4qeu9voq+kcK6kgqBG0uYJWB2047jKA82S7Q3e201YwCMzs3CJzgXBYrVdjcLldKQwiMUMrYw4Ozvy3OcY4UToG024aftdwFDTCtMWfSOkN+Tke137LStlBW1upNRGju09CG1LNzYo2O3+p39YFAWO1Xc19wutK+FsbaCYRh+/O/IzntwpMvaGby4BuM7s8Ki2qKSGn1pFPO6okaHB0r2gF/7I84HCzXfH/KiPtj0Cn/9EwMk/crpLSXyz0LGxmGt63Uc7OW7GbhjlSkUsczd8MjJG5xljgQqnqmkhrtQaYpanmGQz7259oBgO0+44wfcV7ZR09m1tRw2yFlPBXUknXhibtZlhBa7A4zzhAWxEURqy4G16drqphPUEeyPHfe71W/UqCTU05qcXq41dKabosY0yU0m/PXjD3MLsY45b9VYXOaxpc9wa0dyTgBc6pa6jt9bpg0sdXH6O30OodLSyRtcHgc5cAPb5U7eoWXXWFDaq4b6COjfVGAn1ZX7to3Dxx3wpwRkssU0UzC+KVj2j7zXAhaEV6p5LzUW3gGGFkvVLxtduJGPoslHZbZQunNFQwQddobK2Nga14Ge4HHiVWqSwWd2sq+lda6I07KKJ7IjA3a1xc7JAx34QFzLmhu4uG3vnPC07fNVyyVfpTIBG2YinMTsl0eBy735ysslDSS0XoUlNE6l2BnRLBs2jsMdscKA0VBDS1F/gpomRRMuTg1jG4DRsb2CEljmnigAM0rIwexe4DK97m7d2RtxnOeMKpW630l71LfZrtBHVejSsp4I5mhzYmbcnAPmTnK1beDT6d1ZbmuLqajdUR04JzsYY87fgMpgjJdOvD1Gx9WPqOGQ3cMkfBZFz252eho9AU1zhgYLhFDTTtqsftN2Wfe74wcAdhx5LoSEkTeLJHcaiCshqZqOupwRFUw4zg92uB4cPcV5tNjdRV81xrK+aurZYxEZHsawNYDnAa0Y7qYRQCu1unKusq4amW+1QdTyukgAgi/Zk5H4eeDjnKmaKnlgpRDVVT6t/OZZGtaXZ9zQAtlEBCWewSWiSOOkutWaCMu20cjWOaAc8btu7AJz3W1bbTHQV9xq2Sve6ukbI9rsYaQMcKRRARdHZIKaoukpe6QXF+6VjsYHq4wPkoh+jHS2t1qqL1WSUDQBDCWsHTweMkDLseGePdwFa0U5BDXqwR3aehmdVT08lFvMTocA7iBg8+WAff4r7a7G6luElxr66WvrnR9JssjGsEbM5w1reBk9yphFACjrzaY7sKRs0r2R09SyoLG4xIW9gfcpFEBH321RXq1y0E73xtkLSHsxuaQQQR+Sw3ayMuJpp21M1NXUuejVRY3DI5BB4IPkpZEBHWqgq6R0slddJq57wAN8bWNYBns1o7nPJ9wWC42I1NyFxo7hU0NX0ui98QY4PZnIyHAjue6mEQGnUUtTLQMp4rhLDO0NBqWxsLnY7nBGOfgoq36cq6CpkmivtUevOJ52GGLEruM59XjIGOMKwogIStsEj7lLcLXcZrfUTtDajZG17ZccAlrh3A8VkpNP01LZKq2Ryyn0tsnXqHkF73vGHOPhn/RS6JkETXWKKs04LK6aRsQiji6gA3YZjB8vuqWREB//2Q==;fontSize=13;fontFamily=Courier New;" parent="1" vertex="1">
                    <mxGeometry x="109.5" y="-110" width="69.06" height="65" as="geometry"/>
                </mxCell>
                <mxCell id="MfYopfng2UjAwjtcQSiA-75" value="" style="shape=image;verticalLabelPosition=bottom;labelBackgroundColor=default;verticalAlign=top;aspect=fixed;imageAspect=0;image=data:image/jpeg,/9j/4AAQSkZJRgABAQAAAQABAAD/2wCEAAkGBwgHBgkIBwgKCgkLDRYPDQwMDRsUFRAWIB0iIiAdHx8kKDQsJCYxJx8fLT0tMTU3Ojo6Iys/RD84QzQ5OjcBCgoKDQwNGg8PGjclHyU3Nzc3Nzc3Nzc3Nzc3Nzc3Nzc3Nzc3Nzc3Nzc3Nzc3Nzc3Nzc3Nzc3Nzc3Nzc3Nzc3N//AABEIAKAAqgMBIgACEQEDEQH/xAAbAAEAAgMBAQAAAAAAAAAAAAAABQYDBAcCAf/EAEAQAAEDAwMCAgcFBAgHAAAAAAEAAgMEBREGEiETMUFRFCIyYXGBoQdCUpGxI3Jz8BU0NZKywdHhFhckYqLC8f/EABkBAQADAQEAAAAAAAAAAAAAAAABAwQFAv/EACwRAAICAQMDAwMDBQAAAAAAAAABAgMRBBIxIUFRE2HBcYHxFCLRBTKRobH/2gAMAwEAAhEDEQA/AO4oiIAiIgCITgZPZVe665tVC90cG+rkacExYDAf3j3+WVbVRZc8VrJXZdXUszeC0IqJH9pEBeBJbXhvm2YE/lgKz2XUFuvTT6HN+1aMuhkG14+Xj8QrbdFqKVunHoV16ui14hLqSiIiymgIiIAiIgCIiAIiIAiIgCIiAIiIAiIgKLrC51d0ujNOWon1iBO4HucZwT+EDk/l8d2Kk09o+CE1pbJVP7SOj3vPmQOdo/nlR32dNFZdrtcZOZDjBP8A3ucT+gXzWcUdRrS0wTN3xSNia5p8QZCCu64JWLSZajFZeOW8ZOOpN1vU4zJvCz2WcFzpKugvFJ1Kd8NTA7gjGce4g9vgVUtU6WFE3+l7Dup5af13xR+AH3m+WPEdiPrjuWkq+zzuuGmqp7doyYXOw4DyyeHD3H6qa0dqJ9+p546qJrKiDbvLPZeDnBx4djws8Yuhevp5bod18NF8mrn6N8cS7P8Ahm3pW9C92ps7gG1DDsmaOwd5j3HuphULQrfQ9T3igjP7Ju7A/cfgfRyvqy62qNVzUOH1X3NGkslZUnLnj/AREWQ0hERAEREAREQBERAEREAREQBERAc/0e8WbVdxtVQdnWdiPPiWklv5tcmvXvoNS2y5Pic6GJrDnsCWvJLc+HcKX1jpp902V9uOyvhAxg46gHI58HDwP8iOtet2RtNFqOmkZPGdrpBHnP7ze4Pw+i7sJO2a1Na3PGJLvxjJx5xVcXRN7VnMX284NVsOodZuDp3eh2wnIGCGke4d3/E8K22u127TNumdGS1gbvnmkOS7A/ngLTl1vYY49zKmSQ+DGQvz9QAq5WXC6a2qBR2+E09ua4dRzuR8XHx9zR/uK3C+5bZR9Otfb8s9qdNT3Re+x/f8I2/s7jkq7ldbtI0gSuLR8XO3EfL1fzV7WparfBaqCKjphiOMdz3cfEn3lba5+ruV1zmuO30Ru01TqqUXyERFmLwiIgCIiAIiIAiIgCIiAIiIAiIgCj7xbqKtpJTV0sMzmRuLXPYCW8eB8FILDWf1Of8Ahu/Re65OMk0zzNJxaZzb7PKW2V9TPT3Gmimn2tkh6gyCB7Qx28QumRRRwxtjhjbGxvZrBgD5LkNgtVwqKJ10tDnGpo5R6jfaIxnI8/h4j8lbKD7QKcwllzppIapgIOxuWl3w7j4Ltf1LTWXWuVT3Y5Xj7HJ0GohVWlYseH5+5v6n1ZHaJRR0kXpNccer91me2ccknyChxXa7e3rtpMM79Ppxj6E7li0OynDbjqO7PBdE8jqOBO0kZcQPP1gAp68axt1Ha2VVFKyplmB6MYOMeZd4gBeHWqZKmqpTfDbWevwe97tj6tljiuyXj5NfTusPTKv+jrvB6LW52g4LWud+Eg8tP6q2rnWp4Ki5aYpL5W0zaavY8BxjBbujJw0+Y5wR81NW7W9pNBT+nVLm1XTb1QIXn1sc9h5qnU6TelZRHu00uuGvHsWUarY9l0u2U30yn8lkrquCgpZKqqkEcMYy5x/nuqQ/VN/vM72aeoNsLDjeWhx+ZJ2j4LV1hfKfUE1vt9rnLonygPJY5vrkhre45xkq301fZrPNDZI5o4JGR5DHDA+Jd2yeSphQtPWpSr3Teej7Jd2hK132OMZ7YrHVd2/DKw7UWqbI5sl6oRJTk4LtoH/k3gfMK52m5012omVdG/LHcFp7sPiCPNV2DUz75fv6MoqOOothaWzySNPrNx7XkBngZ7qP0kHWfWVfaGOJgcHbQfdhzT/dOF7uoVlbcoKM0s9OMfTszxVc4TWJOUG8dfP17ov6Ii451AiIgCIiAIiIAiIgCw1n9Tn/AIbv0WZYaz+pz/w3fovUeUQ+Cm/ZX/Z1d/Fb/hVquNooLi13pdJDI8twJHMBcPgVVfsr/s6u/it/wq8Ld/UJSjrJuLx+DHoYqWlimjnejZoaKouGnLy1gEz8BsnAc7GCPmACP/ilbXoSkoroaqeY1EDDmGF7ex8Nx8cKQ1JpajvoEpd0KtowJmjO4eTh4qAGltUxt6EV7HQHA/6mQHHwx/mtX6iN2Zwt2OX9yf8A1Gb0ZVYjKvclw/5M/wBol1jkhis1KerUyyNMjW87fwt+JOOP9VK2/SFpioaeOroo5KhsbRK/J9Z2OT381403pCms8vpVRJ6VWeDy3DWZ8h5+8/RWVZbtSq4Rp08nhcvjLNNVDnJ23JZfC5wjnutrJDZxRXO1UzYmQyjqBuSN2QWk/MEfMKUuVooNZ0UFxoZmwVOA1zsbvi1w8x5/5K1VEEVTA+CojbJFINrmOGQQqVU6HrKOpdPp+5ugDvuPe5pA8tze4+IV1GqU4xUp7Zx4fOU+zKrtO4SbjDdGXK4xjuiw26ht2l7S7L2sjaN007+C9389gqzoxsl31RcL45hbCNzW58zgAfJo5+IXpmirtcJmOvt2L42n2WPdIfluwB+RV0oKKnt1JHS0cYjhYOAP1PmV5strphPE9858vskeoVztlHMdsY8L3NhERcs6AREQBERAEREAREQBeJmdSF7PxNIXtEBQ/svkETbjRSerM1zXFp7+LT+RH1V8VB1NbaywXn/iC0NzE4l07AOGk+1kfhPfPgVNUWtLTVUb5XTCnqGsJMMpxkgdgexXU1lMtRL9RUsqXPsznaW2NMfQseGv9ox6n1a21z+g2+EVNecAt5LWE9gQOSfcFEifXsjeu2Ha3v09sQ+h5T7PKZk5r75XEPma8je7nacbnu+o+quLbpSOoXVgkPRacE7TnPlj5r1Y4aWXpQrUmuW1nr7EVqWoXqTm4p8JdOnuV3T2sH1FYLbeoPRazdta7BaC7yIPYn8ireqT9oNHTVlnhu9PjqRuaOoBguYTjHyOPqp62XmE2Ggra6Xa+aJuTgnLsc8D3qnUUwnCN1UcZeGvf2LaLZRm6rHnHVP2JOpnjpoHzTO2sYMkqvm7XS4vcLZT7IwfawCfmTx8lhvtwiuclNTUchLHP9YlpHJ4Hf5qzU0EdNAyGFu1jBgBVbVRBSlHMn57Fm52yai8JeCvOuN6txD6+ASRZ5OB+re3zU9Q1kNdTiaA8Hgg92nyKzPY2RjmPaHNcMEHsQq5ZQaG/VNE0npkHAPu5H0Kftug2lhrwP3VSSbymWVERZDSEREAREQBERAEREAREQAjIweyr1w0bZa15kFO6nee5gdtH93t9FYUVld1lTzB4PE6oWLE1k57omubZ7hW2K6bYy+T1S/2S/GCPmMEf7q+Ckp205pxDGIT3Zt4KiNR6Yor60PeTDVNGGzMGcjycPEKvDSGo2N6Ed9Ip+2BPKOP3f8AddGx0ap+pv2S7r38owwV2nWzZuXZ/DMmv7nC+CGxW9okmdI3eyP7uPZb8Scfl71Z6C0QRWejoaqNsvQjaD+9jkj5qP05pGkszxUSP9Jq/CRzcBn7o8/erGqNRfBQjVS+i658stopm5Oy1dX0x4RWNQW2OibBV0UQYI3+vjJ58Cp6grIa6nbNC4c+03xafIrPIxsjHMkaHMcMEHsQoCfTkkcpkttW6HP3SSMfMKtTjbBRseGu5Y4yrk5QWU+xOVE8VNC6Wd4axvclQGn2vrbtU3FzSGchvxPh8gvrNPVM72uuNa57R4BxcfzPZT9PBFTQthgYGMb2ARuFUHGLy2Ep2STksJGRERZTQEREAREQBERAEREAREQBERAEREAREQBERAEREAREQBERAEREBDXi9S0tdBbLbS+mXGZhk6ZfsZGwcbnHnjKz2mpuksk0V1oIqdzACyWGbeyTOcjkAgjHj5qJoPV+0S6CT2nUMRiz+HOD9VtWy7XGTUVTabjBSsEdP143wPc7LS7aM5HdSQSNZPVNq6SOjED4nSEVO9+HNbjgtGe+cLZnmZBG573NGASATjKq9/t9HT6nsNVBSwx1E9Y/qytYA5/7M9z4qeu9voq+kcK6kgqBG0uYJWB2047jKA82S7Q3e201YwCMzs3CJzgXBYrVdjcLldKQwiMUMrYw4Ozvy3OcY4UToG024aftdwFDTCtMWfSOkN+Tke137LStlBW1upNRGju09CG1LNzYo2O3+p39YFAWO1Xc19wutK+FsbaCYRh+/O/IzntwpMvaGby4BuM7s8Ki2qKSGn1pFPO6okaHB0r2gF/7I84HCzXfH/KiPtj0Cn/9EwMk/crpLSXyz0LGxmGt63Uc7OW7GbhjlSkUsczd8MjJG5xljgQqnqmkhrtQaYpanmGQz7259oBgO0+44wfcV7ZR09m1tRw2yFlPBXUknXhibtZlhBa7A4zzhAWxEURqy4G16drqphPUEeyPHfe71W/UqCTU05qcXq41dKabosY0yU0m/PXjD3MLsY45b9VYXOaxpc9wa0dyTgBc6pa6jt9bpg0sdXH6O30OodLSyRtcHgc5cAPb5U7eoWXXWFDaq4b6COjfVGAn1ZX7to3Dxx3wpwRkssU0UzC+KVj2j7zXAhaEV6p5LzUW3gGGFkvVLxtduJGPoslHZbZQunNFQwQddobK2Nga14Ge4HHiVWqSwWd2sq+lda6I07KKJ7IjA3a1xc7JAx34QFzLmhu4uG3vnPC07fNVyyVfpTIBG2YinMTsl0eBy735ysslDSS0XoUlNE6l2BnRLBs2jsMdscKA0VBDS1F/gpomRRMuTg1jG4DRsb2CEljmnigAM0rIwexe4DK97m7d2RtxnOeMKpW630l71LfZrtBHVejSsp4I5mhzYmbcnAPmTnK1beDT6d1ZbmuLqajdUR04JzsYY87fgMpgjJdOvD1Gx9WPqOGQ3cMkfBZFz252eho9AU1zhgYLhFDTTtqsftN2Wfe74wcAdhx5LoSEkTeLJHcaiCshqZqOupwRFUw4zg92uB4cPcV5tNjdRV81xrK+aurZYxEZHsawNYDnAa0Y7qYRQCu1unKusq4amW+1QdTyukgAgi/Zk5H4eeDjnKmaKnlgpRDVVT6t/OZZGtaXZ9zQAtlEBCWewSWiSOOkutWaCMu20cjWOaAc8btu7AJz3W1bbTHQV9xq2Sve6ukbI9rsYaQMcKRRARdHZIKaoukpe6QXF+6VjsYHq4wPkoh+jHS2t1qqL1WSUDQBDCWsHTweMkDLseGePdwFa0U5BDXqwR3aehmdVT08lFvMTocA7iBg8+WAff4r7a7G6luElxr66WvrnR9JssjGsEbM5w1reBk9yphFACjrzaY7sKRs0r2R09SyoLG4xIW9gfcpFEBH321RXq1y0E73xtkLSHsxuaQQQR+Sw3ayMuJpp21M1NXUuejVRY3DI5BB4IPkpZEBHWqgq6R0slddJq57wAN8bWNYBns1o7nPJ9wWC42I1NyFxo7hU0NX0ui98QY4PZnIyHAjue6mEQGnUUtTLQMp4rhLDO0NBqWxsLnY7nBGOfgoq36cq6CpkmivtUevOJ52GGLEruM59XjIGOMKwogIStsEj7lLcLXcZrfUTtDajZG17ZccAlrh3A8VkpNP01LZKq2Ryyn0tsnXqHkF73vGHOPhn/RS6JkETXWKKs04LK6aRsQiji6gA3YZjB8vuqWREB//2Q==;fontSize=13;" parent="1" vertex="1">
                    <mxGeometry x="227.4" y="-110" width="74.38" height="70" as="geometry"/>
                </mxCell>
                <mxCell id="MfYopfng2UjAwjtcQSiA-79" value="&lt;pre style=&quot;font-size: 10px;&quot;&gt;frontend_deploy.yml&lt;/pre&gt;" style="text;html=1;align=center;verticalAlign=middle;resizable=0;points=[];autosize=1;strokeColor=none;fillColor=none;fontSize=10;" parent="1" vertex="1">
                    <mxGeometry x="74.03" y="-60" width="140" height="50" as="geometry"/>
                </mxCell>
                <mxCell id="MfYopfng2UjAwjtcQSiA-96" style="edgeStyle=orthogonalEdgeStyle;rounded=0;orthogonalLoop=1;jettySize=auto;html=1;entryX=0.25;entryY=0;entryDx=0;entryDy=0;" parent="1" source="MfYopfng2UjAwjtcQSiA-71" target="MfYopfng2UjAwjtcQSiA-74" edge="1">
                    <mxGeometry relative="1" as="geometry"/>
                </mxCell>
                <mxCell id="MfYopfng2UjAwjtcQSiA-97" style="edgeStyle=orthogonalEdgeStyle;rounded=0;orthogonalLoop=1;jettySize=auto;html=1;entryX=0.5;entryY=0;entryDx=0;entryDy=0;" parent="1" source="MfYopfng2UjAwjtcQSiA-71" target="MfYopfng2UjAwjtcQSiA-75" edge="1">
                    <mxGeometry relative="1" as="geometry"/>
                </mxCell>
                <mxCell id="MfYopfng2UjAwjtcQSiA-98" style="edgeStyle=orthogonalEdgeStyle;rounded=0;orthogonalLoop=1;jettySize=auto;html=1;entryX=0.5;entryY=0;entryDx=0;entryDy=0;" parent="1" source="MfYopfng2UjAwjtcQSiA-71" target="MfYopfng2UjAwjtcQSiA-73" edge="1">
                    <mxGeometry relative="1" as="geometry"/>
                </mxCell>
                <mxCell id="MfYopfng2UjAwjtcQSiA-99" style="edgeStyle=orthogonalEdgeStyle;rounded=0;orthogonalLoop=1;jettySize=auto;html=1;entryX=0.5;entryY=0;entryDx=0;entryDy=0;" parent="1" source="MfYopfng2UjAwjtcQSiA-71" target="MfYopfng2UjAwjtcQSiA-88" edge="1">
                    <mxGeometry relative="1" as="geometry"/>
                </mxCell>
                <mxCell id="MfYopfng2UjAwjtcQSiA-100" style="edgeStyle=orthogonalEdgeStyle;rounded=0;orthogonalLoop=1;jettySize=auto;html=1;entryX=0.5;entryY=0;entryDx=0;entryDy=0;" parent="1" source="MfYopfng2UjAwjtcQSiA-71" target="MfYopfng2UjAwjtcQSiA-90" edge="1">
                    <mxGeometry relative="1" as="geometry"/>
                </mxCell>
                <mxCell id="MfYopfng2UjAwjtcQSiA-71" value="" style="shape=image;verticalLabelPosition=bottom;labelBackgroundColor=default;verticalAlign=top;aspect=fixed;imageAspect=0;image=https://1000logos.net/wp-content/uploads/2018/11/GitHub-logo.jpg;fontSize=13;" parent="1" vertex="1">
                    <mxGeometry x="666.77" y="-160" width="86.45" height="50" as="geometry"/>
                </mxCell>
                <mxCell id="MfYopfng2UjAwjtcQSiA-81" value="&lt;pre&gt;&lt;i&gt;&lt;b&gt;&lt;u&gt;SI-Koala&lt;/u&gt;&lt;/b&gt;&lt;/i&gt;&lt;/pre&gt;" style="text;html=1;align=center;verticalAlign=middle;resizable=0;points=[];autosize=1;strokeColor=none;fillColor=none;" parent="1" vertex="1">
                    <mxGeometry x="670" y="-112.5" width="80" height="50" as="geometry"/>
                </mxCell>
                <mxCell id="MfYopfng2UjAwjtcQSiA-88" value="" style="shape=image;verticalLabelPosition=bottom;labelBackgroundColor=default;verticalAlign=top;aspect=fixed;imageAspect=0;image=data:image/jpeg,/9j/4AAQSkZJRgABAQAAAQABAAD/2wCEAAkGBwgHBgkIBwgKCgkLDRYPDQwMDRsUFRAWIB0iIiAdHx8kKDQsJCYxJx8fLT0tMTU3Ojo6Iys/RD84QzQ5OjcBCgoKDQwNGg8PGjclHyU3Nzc3Nzc3Nzc3Nzc3Nzc3Nzc3Nzc3Nzc3Nzc3Nzc3Nzc3Nzc3Nzc3Nzc3Nzc3Nzc3N//AABEIAKAAqgMBIgACEQEDEQH/xAAbAAEAAgMBAQAAAAAAAAAAAAAABQYDBAcCAf/EAEAQAAEDAwMCAgcFBAgHAAAAAAEAAgMEBREGEiETMUFRFCIyYXGBoQdCUpGxI3Jz8BU0NZKywdHhFhckYqLC8f/EABkBAQADAQEAAAAAAAAAAAAAAAABAwQFAv/EACwRAAICAQMDAwMDBQAAAAAAAAABAgMRBBIxIUFRE2HBcYHxFCLRBTKRobH/2gAMAwEAAhEDEQA/AO4oiIAiIgCITgZPZVe665tVC90cG+rkacExYDAf3j3+WVbVRZc8VrJXZdXUszeC0IqJH9pEBeBJbXhvm2YE/lgKz2XUFuvTT6HN+1aMuhkG14+Xj8QrbdFqKVunHoV16ui14hLqSiIiymgIiIAiIgCIiAIiIAiIgCIiAIiIAiIgKLrC51d0ujNOWon1iBO4HucZwT+EDk/l8d2Kk09o+CE1pbJVP7SOj3vPmQOdo/nlR32dNFZdrtcZOZDjBP8A3ucT+gXzWcUdRrS0wTN3xSNia5p8QZCCu64JWLSZajFZeOW8ZOOpN1vU4zJvCz2WcFzpKugvFJ1Kd8NTA7gjGce4g9vgVUtU6WFE3+l7Dup5af13xR+AH3m+WPEdiPrjuWkq+zzuuGmqp7doyYXOw4DyyeHD3H6qa0dqJ9+p546qJrKiDbvLPZeDnBx4djws8Yuhevp5bod18NF8mrn6N8cS7P8Ahm3pW9C92ps7gG1DDsmaOwd5j3HuphULQrfQ9T3igjP7Ju7A/cfgfRyvqy62qNVzUOH1X3NGkslZUnLnj/AREWQ0hERAEREAREQBERAEREAREQBERAc/0e8WbVdxtVQdnWdiPPiWklv5tcmvXvoNS2y5Pic6GJrDnsCWvJLc+HcKX1jpp902V9uOyvhAxg46gHI58HDwP8iOtet2RtNFqOmkZPGdrpBHnP7ze4Pw+i7sJO2a1Na3PGJLvxjJx5xVcXRN7VnMX284NVsOodZuDp3eh2wnIGCGke4d3/E8K22u127TNumdGS1gbvnmkOS7A/ngLTl1vYY49zKmSQ+DGQvz9QAq5WXC6a2qBR2+E09ua4dRzuR8XHx9zR/uK3C+5bZR9Otfb8s9qdNT3Re+x/f8I2/s7jkq7ldbtI0gSuLR8XO3EfL1fzV7WparfBaqCKjphiOMdz3cfEn3lba5+ruV1zmuO30Ru01TqqUXyERFmLwiIgCIiAIiIAiIgCIiAIiIAiIgCj7xbqKtpJTV0sMzmRuLXPYCW8eB8FILDWf1Of8Ahu/Re65OMk0zzNJxaZzb7PKW2V9TPT3Gmimn2tkh6gyCB7Qx28QumRRRwxtjhjbGxvZrBgD5LkNgtVwqKJ10tDnGpo5R6jfaIxnI8/h4j8lbKD7QKcwllzppIapgIOxuWl3w7j4Ltf1LTWXWuVT3Y5Xj7HJ0GohVWlYseH5+5v6n1ZHaJRR0kXpNccer91me2ccknyChxXa7e3rtpMM79Ppxj6E7li0OynDbjqO7PBdE8jqOBO0kZcQPP1gAp68axt1Ha2VVFKyplmB6MYOMeZd4gBeHWqZKmqpTfDbWevwe97tj6tljiuyXj5NfTusPTKv+jrvB6LW52g4LWud+Eg8tP6q2rnWp4Ki5aYpL5W0zaavY8BxjBbujJw0+Y5wR81NW7W9pNBT+nVLm1XTb1QIXn1sc9h5qnU6TelZRHu00uuGvHsWUarY9l0u2U30yn8lkrquCgpZKqqkEcMYy5x/nuqQ/VN/vM72aeoNsLDjeWhx+ZJ2j4LV1hfKfUE1vt9rnLonygPJY5vrkhre45xkq301fZrPNDZI5o4JGR5DHDA+Jd2yeSphQtPWpSr3Teej7Jd2hK132OMZ7YrHVd2/DKw7UWqbI5sl6oRJTk4LtoH/k3gfMK52m5012omVdG/LHcFp7sPiCPNV2DUz75fv6MoqOOothaWzySNPrNx7XkBngZ7qP0kHWfWVfaGOJgcHbQfdhzT/dOF7uoVlbcoKM0s9OMfTszxVc4TWJOUG8dfP17ov6Ii451AiIgCIiAIiIAiIgCw1n9Tn/AIbv0WZYaz+pz/w3fovUeUQ+Cm/ZX/Z1d/Fb/hVquNooLi13pdJDI8twJHMBcPgVVfsr/s6u/it/wq8Ld/UJSjrJuLx+DHoYqWlimjnejZoaKouGnLy1gEz8BsnAc7GCPmACP/ilbXoSkoroaqeY1EDDmGF7ex8Nx8cKQ1JpajvoEpd0KtowJmjO4eTh4qAGltUxt6EV7HQHA/6mQHHwx/mtX6iN2Zwt2OX9yf8A1Gb0ZVYjKvclw/5M/wBol1jkhis1KerUyyNMjW87fwt+JOOP9VK2/SFpioaeOroo5KhsbRK/J9Z2OT381403pCms8vpVRJ6VWeDy3DWZ8h5+8/RWVZbtSq4Rp08nhcvjLNNVDnJ23JZfC5wjnutrJDZxRXO1UzYmQyjqBuSN2QWk/MEfMKUuVooNZ0UFxoZmwVOA1zsbvi1w8x5/5K1VEEVTA+CojbJFINrmOGQQqVU6HrKOpdPp+5ugDvuPe5pA8tze4+IV1GqU4xUp7Zx4fOU+zKrtO4SbjDdGXK4xjuiw26ht2l7S7L2sjaN007+C9389gqzoxsl31RcL45hbCNzW58zgAfJo5+IXpmirtcJmOvt2L42n2WPdIfluwB+RV0oKKnt1JHS0cYjhYOAP1PmV5strphPE9858vskeoVztlHMdsY8L3NhERcs6AREQBERAEREAREQBeJmdSF7PxNIXtEBQ/svkETbjRSerM1zXFp7+LT+RH1V8VB1NbaywXn/iC0NzE4l07AOGk+1kfhPfPgVNUWtLTVUb5XTCnqGsJMMpxkgdgexXU1lMtRL9RUsqXPsznaW2NMfQseGv9ox6n1a21z+g2+EVNecAt5LWE9gQOSfcFEifXsjeu2Ha3v09sQ+h5T7PKZk5r75XEPma8je7nacbnu+o+quLbpSOoXVgkPRacE7TnPlj5r1Y4aWXpQrUmuW1nr7EVqWoXqTm4p8JdOnuV3T2sH1FYLbeoPRazdta7BaC7yIPYn8ireqT9oNHTVlnhu9PjqRuaOoBguYTjHyOPqp62XmE2Ggra6Xa+aJuTgnLsc8D3qnUUwnCN1UcZeGvf2LaLZRm6rHnHVP2JOpnjpoHzTO2sYMkqvm7XS4vcLZT7IwfawCfmTx8lhvtwiuclNTUchLHP9YlpHJ4Hf5qzU0EdNAyGFu1jBgBVbVRBSlHMn57Fm52yai8JeCvOuN6txD6+ASRZ5OB+re3zU9Q1kNdTiaA8Hgg92nyKzPY2RjmPaHNcMEHsQq5ZQaG/VNE0npkHAPu5H0Kftug2lhrwP3VSSbymWVERZDSEREAREQBERAEREAREQAjIweyr1w0bZa15kFO6nee5gdtH93t9FYUVld1lTzB4PE6oWLE1k57omubZ7hW2K6bYy+T1S/2S/GCPmMEf7q+Ckp205pxDGIT3Zt4KiNR6Yor60PeTDVNGGzMGcjycPEKvDSGo2N6Ed9Ip+2BPKOP3f8AddGx0ap+pv2S7r38owwV2nWzZuXZ/DMmv7nC+CGxW9okmdI3eyP7uPZb8Scfl71Z6C0QRWejoaqNsvQjaD+9jkj5qP05pGkszxUSP9Jq/CRzcBn7o8/erGqNRfBQjVS+i658stopm5Oy1dX0x4RWNQW2OibBV0UQYI3+vjJ58Cp6grIa6nbNC4c+03xafIrPIxsjHMkaHMcMEHsQoCfTkkcpkttW6HP3SSMfMKtTjbBRseGu5Y4yrk5QWU+xOVE8VNC6Wd4axvclQGn2vrbtU3FzSGchvxPh8gvrNPVM72uuNa57R4BxcfzPZT9PBFTQthgYGMb2ARuFUHGLy2Ep2STksJGRERZTQEREAREQBERAEREAREQBERAEREAREQBERAEREAREQBERAEREBDXi9S0tdBbLbS+mXGZhk6ZfsZGwcbnHnjKz2mpuksk0V1oIqdzACyWGbeyTOcjkAgjHj5qJoPV+0S6CT2nUMRiz+HOD9VtWy7XGTUVTabjBSsEdP143wPc7LS7aM5HdSQSNZPVNq6SOjED4nSEVO9+HNbjgtGe+cLZnmZBG573NGASATjKq9/t9HT6nsNVBSwx1E9Y/qytYA5/7M9z4qeu9voq+kcK6kgqBG0uYJWB2047jKA82S7Q3e201YwCMzs3CJzgXBYrVdjcLldKQwiMUMrYw4Ozvy3OcY4UToG024aftdwFDTCtMWfSOkN+Tke137LStlBW1upNRGju09CG1LNzYo2O3+p39YFAWO1Xc19wutK+FsbaCYRh+/O/IzntwpMvaGby4BuM7s8Ki2qKSGn1pFPO6okaHB0r2gF/7I84HCzXfH/KiPtj0Cn/9EwMk/crpLSXyz0LGxmGt63Uc7OW7GbhjlSkUsczd8MjJG5xljgQqnqmkhrtQaYpanmGQz7259oBgO0+44wfcV7ZR09m1tRw2yFlPBXUknXhibtZlhBa7A4zzhAWxEURqy4G16drqphPUEeyPHfe71W/UqCTU05qcXq41dKabosY0yU0m/PXjD3MLsY45b9VYXOaxpc9wa0dyTgBc6pa6jt9bpg0sdXH6O30OodLSyRtcHgc5cAPb5U7eoWXXWFDaq4b6COjfVGAn1ZX7to3Dxx3wpwRkssU0UzC+KVj2j7zXAhaEV6p5LzUW3gGGFkvVLxtduJGPoslHZbZQunNFQwQddobK2Nga14Ge4HHiVWqSwWd2sq+lda6I07KKJ7IjA3a1xc7JAx34QFzLmhu4uG3vnPC07fNVyyVfpTIBG2YinMTsl0eBy735ysslDSS0XoUlNE6l2BnRLBs2jsMdscKA0VBDS1F/gpomRRMuTg1jG4DRsb2CEljmnigAM0rIwexe4DK97m7d2RtxnOeMKpW630l71LfZrtBHVejSsp4I5mhzYmbcnAPmTnK1beDT6d1ZbmuLqajdUR04JzsYY87fgMpgjJdOvD1Gx9WPqOGQ3cMkfBZFz252eho9AU1zhgYLhFDTTtqsftN2Wfe74wcAdhx5LoSEkTeLJHcaiCshqZqOupwRFUw4zg92uB4cPcV5tNjdRV81xrK+aurZYxEZHsawNYDnAa0Y7qYRQCu1unKusq4amW+1QdTyukgAgi/Zk5H4eeDjnKmaKnlgpRDVVT6t/OZZGtaXZ9zQAtlEBCWewSWiSOOkutWaCMu20cjWOaAc8btu7AJz3W1bbTHQV9xq2Sve6ukbI9rsYaQMcKRRARdHZIKaoukpe6QXF+6VjsYHq4wPkoh+jHS2t1qqL1WSUDQBDCWsHTweMkDLseGePdwFa0U5BDXqwR3aehmdVT08lFvMTocA7iBg8+WAff4r7a7G6luElxr66WvrnR9JssjGsEbM5w1reBk9yphFACjrzaY7sKRs0r2R09SyoLG4xIW9gfcpFEBH321RXq1y0E73xtkLSHsxuaQQQR+Sw3ayMuJpp21M1NXUuejVRY3DI5BB4IPkpZEBHWqgq6R0slddJq57wAN8bWNYBns1o7nPJ9wWC42I1NyFxo7hU0NX0ui98QY4PZnIyHAjue6mEQGnUUtTLQMp4rhLDO0NBqWxsLnY7nBGOfgoq36cq6CpkmivtUevOJ52GGLEruM59XjIGOMKwogIStsEj7lLcLXcZrfUTtDajZG17ZccAlrh3A8VkpNP01LZKq2Ryyn0tsnXqHkF73vGHOPhn/RS6JkETXWKKs04LK6aRsQiji6gA3YZjB8vuqWREB//2Q==;fontSize=13;" parent="1" vertex="1">
                    <mxGeometry x="452.19" y="-112.5" width="74.38" height="70" as="geometry"/>
                </mxCell>
                <mxCell id="MfYopfng2UjAwjtcQSiA-90" value="" style="shape=image;verticalLabelPosition=bottom;labelBackgroundColor=default;verticalAlign=top;aspect=fixed;imageAspect=0;image=data:image/jpeg,/9j/4AAQSkZJRgABAQAAAQABAAD/2wCEAAkGBwgHBgkIBwgKCgkLDRYPDQwMDRsUFRAWIB0iIiAdHx8kKDQsJCYxJx8fLT0tMTU3Ojo6Iys/RD84QzQ5OjcBCgoKDQwNGg8PGjclHyU3Nzc3Nzc3Nzc3Nzc3Nzc3Nzc3Nzc3Nzc3Nzc3Nzc3Nzc3Nzc3Nzc3Nzc3Nzc3Nzc3N//AABEIAKAAqgMBIgACEQEDEQH/xAAbAAEAAgMBAQAAAAAAAAAAAAAABQYDBAcCAf/EAEAQAAEDAwMCAgcFBAgHAAAAAAEAAgMEBREGEiETMUFRFCIyYXGBoQdCUpGxI3Jz8BU0NZKywdHhFhckYqLC8f/EABkBAQADAQEAAAAAAAAAAAAAAAABAwQFAv/EACwRAAICAQMDAwMDBQAAAAAAAAABAgMRBBIxIUFRE2HBcYHxFCLRBTKRobH/2gAMAwEAAhEDEQA/AO4oiIAiIgCITgZPZVe665tVC90cG+rkacExYDAf3j3+WVbVRZc8VrJXZdXUszeC0IqJH9pEBeBJbXhvm2YE/lgKz2XUFuvTT6HN+1aMuhkG14+Xj8QrbdFqKVunHoV16ui14hLqSiIiymgIiIAiIgCIiAIiIAiIgCIiAIiIAiIgKLrC51d0ujNOWon1iBO4HucZwT+EDk/l8d2Kk09o+CE1pbJVP7SOj3vPmQOdo/nlR32dNFZdrtcZOZDjBP8A3ucT+gXzWcUdRrS0wTN3xSNia5p8QZCCu64JWLSZajFZeOW8ZOOpN1vU4zJvCz2WcFzpKugvFJ1Kd8NTA7gjGce4g9vgVUtU6WFE3+l7Dup5af13xR+AH3m+WPEdiPrjuWkq+zzuuGmqp7doyYXOw4DyyeHD3H6qa0dqJ9+p546qJrKiDbvLPZeDnBx4djws8Yuhevp5bod18NF8mrn6N8cS7P8Ahm3pW9C92ps7gG1DDsmaOwd5j3HuphULQrfQ9T3igjP7Ju7A/cfgfRyvqy62qNVzUOH1X3NGkslZUnLnj/AREWQ0hERAEREAREQBERAEREAREQBERAc/0e8WbVdxtVQdnWdiPPiWklv5tcmvXvoNS2y5Pic6GJrDnsCWvJLc+HcKX1jpp902V9uOyvhAxg46gHI58HDwP8iOtet2RtNFqOmkZPGdrpBHnP7ze4Pw+i7sJO2a1Na3PGJLvxjJx5xVcXRN7VnMX284NVsOodZuDp3eh2wnIGCGke4d3/E8K22u127TNumdGS1gbvnmkOS7A/ngLTl1vYY49zKmSQ+DGQvz9QAq5WXC6a2qBR2+E09ua4dRzuR8XHx9zR/uK3C+5bZR9Otfb8s9qdNT3Re+x/f8I2/s7jkq7ldbtI0gSuLR8XO3EfL1fzV7WparfBaqCKjphiOMdz3cfEn3lba5+ruV1zmuO30Ru01TqqUXyERFmLwiIgCIiAIiIAiIgCIiAIiIAiIgCj7xbqKtpJTV0sMzmRuLXPYCW8eB8FILDWf1Of8Ahu/Re65OMk0zzNJxaZzb7PKW2V9TPT3Gmimn2tkh6gyCB7Qx28QumRRRwxtjhjbGxvZrBgD5LkNgtVwqKJ10tDnGpo5R6jfaIxnI8/h4j8lbKD7QKcwllzppIapgIOxuWl3w7j4Ltf1LTWXWuVT3Y5Xj7HJ0GohVWlYseH5+5v6n1ZHaJRR0kXpNccer91me2ccknyChxXa7e3rtpMM79Ppxj6E7li0OynDbjqO7PBdE8jqOBO0kZcQPP1gAp68axt1Ha2VVFKyplmB6MYOMeZd4gBeHWqZKmqpTfDbWevwe97tj6tljiuyXj5NfTusPTKv+jrvB6LW52g4LWud+Eg8tP6q2rnWp4Ki5aYpL5W0zaavY8BxjBbujJw0+Y5wR81NW7W9pNBT+nVLm1XTb1QIXn1sc9h5qnU6TelZRHu00uuGvHsWUarY9l0u2U30yn8lkrquCgpZKqqkEcMYy5x/nuqQ/VN/vM72aeoNsLDjeWhx+ZJ2j4LV1hfKfUE1vt9rnLonygPJY5vrkhre45xkq301fZrPNDZI5o4JGR5DHDA+Jd2yeSphQtPWpSr3Teej7Jd2hK132OMZ7YrHVd2/DKw7UWqbI5sl6oRJTk4LtoH/k3gfMK52m5012omVdG/LHcFp7sPiCPNV2DUz75fv6MoqOOothaWzySNPrNx7XkBngZ7qP0kHWfWVfaGOJgcHbQfdhzT/dOF7uoVlbcoKM0s9OMfTszxVc4TWJOUG8dfP17ov6Ii451AiIgCIiAIiIAiIgCw1n9Tn/AIbv0WZYaz+pz/w3fovUeUQ+Cm/ZX/Z1d/Fb/hVquNooLi13pdJDI8twJHMBcPgVVfsr/s6u/it/wq8Ld/UJSjrJuLx+DHoYqWlimjnejZoaKouGnLy1gEz8BsnAc7GCPmACP/ilbXoSkoroaqeY1EDDmGF7ex8Nx8cKQ1JpajvoEpd0KtowJmjO4eTh4qAGltUxt6EV7HQHA/6mQHHwx/mtX6iN2Zwt2OX9yf8A1Gb0ZVYjKvclw/5M/wBol1jkhis1KerUyyNMjW87fwt+JOOP9VK2/SFpioaeOroo5KhsbRK/J9Z2OT381403pCms8vpVRJ6VWeDy3DWZ8h5+8/RWVZbtSq4Rp08nhcvjLNNVDnJ23JZfC5wjnutrJDZxRXO1UzYmQyjqBuSN2QWk/MEfMKUuVooNZ0UFxoZmwVOA1zsbvi1w8x5/5K1VEEVTA+CojbJFINrmOGQQqVU6HrKOpdPp+5ugDvuPe5pA8tze4+IV1GqU4xUp7Zx4fOU+zKrtO4SbjDdGXK4xjuiw26ht2l7S7L2sjaN007+C9389gqzoxsl31RcL45hbCNzW58zgAfJo5+IXpmirtcJmOvt2L42n2WPdIfluwB+RV0oKKnt1JHS0cYjhYOAP1PmV5strphPE9858vskeoVztlHMdsY8L3NhERcs6AREQBERAEREAREQBeJmdSF7PxNIXtEBQ/svkETbjRSerM1zXFp7+LT+RH1V8VB1NbaywXn/iC0NzE4l07AOGk+1kfhPfPgVNUWtLTVUb5XTCnqGsJMMpxkgdgexXU1lMtRL9RUsqXPsznaW2NMfQseGv9ox6n1a21z+g2+EVNecAt5LWE9gQOSfcFEifXsjeu2Ha3v09sQ+h5T7PKZk5r75XEPma8je7nacbnu+o+quLbpSOoXVgkPRacE7TnPlj5r1Y4aWXpQrUmuW1nr7EVqWoXqTm4p8JdOnuV3T2sH1FYLbeoPRazdta7BaC7yIPYn8ireqT9oNHTVlnhu9PjqRuaOoBguYTjHyOPqp62XmE2Ggra6Xa+aJuTgnLsc8D3qnUUwnCN1UcZeGvf2LaLZRm6rHnHVP2JOpnjpoHzTO2sYMkqvm7XS4vcLZT7IwfawCfmTx8lhvtwiuclNTUchLHP9YlpHJ4Hf5qzU0EdNAyGFu1jBgBVbVRBSlHMn57Fm52yai8JeCvOuN6txD6+ASRZ5OB+re3zU9Q1kNdTiaA8Hgg92nyKzPY2RjmPaHNcMEHsQq5ZQaG/VNE0npkHAPu5H0Kftug2lhrwP3VSSbymWVERZDSEREAREQBERAEREAREQAjIweyr1w0bZa15kFO6nee5gdtH93t9FYUVld1lTzB4PE6oWLE1k57omubZ7hW2K6bYy+T1S/2S/GCPmMEf7q+Ckp205pxDGIT3Zt4KiNR6Yor60PeTDVNGGzMGcjycPEKvDSGo2N6Ed9Ip+2BPKOP3f8AddGx0ap+pv2S7r38owwV2nWzZuXZ/DMmv7nC+CGxW9okmdI3eyP7uPZb8Scfl71Z6C0QRWejoaqNsvQjaD+9jkj5qP05pGkszxUSP9Jq/CRzcBn7o8/erGqNRfBQjVS+i658stopm5Oy1dX0x4RWNQW2OibBV0UQYI3+vjJ58Cp6grIa6nbNC4c+03xafIrPIxsjHMkaHMcMEHsQoCfTkkcpkttW6HP3SSMfMKtTjbBRseGu5Y4yrk5QWU+xOVE8VNC6Wd4axvclQGn2vrbtU3FzSGchvxPh8gvrNPVM72uuNa57R4BxcfzPZT9PBFTQthgYGMb2ARuFUHGLy2Ep2STksJGRERZTQEREAREQBERAEREAREQBERAEREAREQBERAEREAREQBERAEREBDXi9S0tdBbLbS+mXGZhk6ZfsZGwcbnHnjKz2mpuksk0V1oIqdzACyWGbeyTOcjkAgjHj5qJoPV+0S6CT2nUMRiz+HOD9VtWy7XGTUVTabjBSsEdP143wPc7LS7aM5HdSQSNZPVNq6SOjED4nSEVO9+HNbjgtGe+cLZnmZBG573NGASATjKq9/t9HT6nsNVBSwx1E9Y/qytYA5/7M9z4qeu9voq+kcK6kgqBG0uYJWB2047jKA82S7Q3e201YwCMzs3CJzgXBYrVdjcLldKQwiMUMrYw4Ozvy3OcY4UToG024aftdwFDTCtMWfSOkN+Tke137LStlBW1upNRGju09CG1LNzYo2O3+p39YFAWO1Xc19wutK+FsbaCYRh+/O/IzntwpMvaGby4BuM7s8Ki2qKSGn1pFPO6okaHB0r2gF/7I84HCzXfH/KiPtj0Cn/9EwMk/crpLSXyz0LGxmGt63Uc7OW7GbhjlSkUsczd8MjJG5xljgQqnqmkhrtQaYpanmGQz7259oBgO0+44wfcV7ZR09m1tRw2yFlPBXUknXhibtZlhBa7A4zzhAWxEURqy4G16drqphPUEeyPHfe71W/UqCTU05qcXq41dKabosY0yU0m/PXjD3MLsY45b9VYXOaxpc9wa0dyTgBc6pa6jt9bpg0sdXH6O30OodLSyRtcHgc5cAPb5U7eoWXXWFDaq4b6COjfVGAn1ZX7to3Dxx3wpwRkssU0UzC+KVj2j7zXAhaEV6p5LzUW3gGGFkvVLxtduJGPoslHZbZQunNFQwQddobK2Nga14Ge4HHiVWqSwWd2sq+lda6I07KKJ7IjA3a1xc7JAx34QFzLmhu4uG3vnPC07fNVyyVfpTIBG2YinMTsl0eBy735ysslDSS0XoUlNE6l2BnRLBs2jsMdscKA0VBDS1F/gpomRRMuTg1jG4DRsb2CEljmnigAM0rIwexe4DK97m7d2RtxnOeMKpW630l71LfZrtBHVejSsp4I5mhzYmbcnAPmTnK1beDT6d1ZbmuLqajdUR04JzsYY87fgMpgjJdOvD1Gx9WPqOGQ3cMkfBZFz252eho9AU1zhgYLhFDTTtqsftN2Wfe74wcAdhx5LoSEkTeLJHcaiCshqZqOupwRFUw4zg92uB4cPcV5tNjdRV81xrK+aurZYxEZHsawNYDnAa0Y7qYRQCu1unKusq4amW+1QdTyukgAgi/Zk5H4eeDjnKmaKnlgpRDVVT6t/OZZGtaXZ9zQAtlEBCWewSWiSOOkutWaCMu20cjWOaAc8btu7AJz3W1bbTHQV9xq2Sve6ukbI9rsYaQMcKRRARdHZIKaoukpe6QXF+6VjsYHq4wPkoh+jHS2t1qqL1WSUDQBDCWsHTweMkDLseGePdwFa0U5BDXqwR3aehmdVT08lFvMTocA7iBg8+WAff4r7a7G6luElxr66WvrnR9JssjGsEbM5w1reBk9yphFACjrzaY7sKRs0r2R09SyoLG4xIW9gfcpFEBH321RXq1y0E73xtkLSHsxuaQQQR+Sw3ayMuJpp21M1NXUuejVRY3DI5BB4IPkpZEBHWqgq6R0slddJq57wAN8bWNYBns1o7nPJ9wWC42I1NyFxo7hU0NX0ui98QY4PZnIyHAjue6mEQGnUUtTLQMp4rhLDO0NBqWxsLnY7nBGOfgoq36cq6CpkmivtUevOJ52GGLEruM59XjIGOMKwogIStsEj7lLcLXcZrfUTtDajZG17ZccAlrh3A8VkpNP01LZKq2Ryyn0tsnXqHkF73vGHOPhn/RS6JkETXWKKs04LK6aRsQiji6gA3YZjB8vuqWREB//2Q==;fontSize=13;" parent="1" vertex="1">
                    <mxGeometry x="557.62" y="-112.5" width="74.38" height="70" as="geometry"/>
                </mxCell>
                <mxCell id="MfYopfng2UjAwjtcQSiA-92" value="&lt;pre style=&quot;font-size: 10px;&quot;&gt;backend_deploy.yml&lt;/pre&gt;" style="text;html=1;align=center;verticalAlign=middle;resizable=0;points=[];autosize=1;strokeColor=none;fillColor=none;fontSize=10;" parent="1" vertex="1">
                    <mxGeometry x="199.59" y="-60" width="130" height="50" as="geometry"/>
                </mxCell>
                <mxCell id="MfYopfng2UjAwjtcQSiA-93" value="&lt;pre style=&quot;font-size: 10px;&quot;&gt;mysql_deploy.yml&lt;/pre&gt;" style="text;html=1;align=center;verticalAlign=middle;resizable=0;points=[];autosize=1;strokeColor=none;fillColor=none;fontSize=10;" parent="1" vertex="1">
                    <mxGeometry x="320" y="-60" width="120" height="50" as="geometry"/>
                </mxCell>
                <mxCell id="MfYopfng2UjAwjtcQSiA-94" value="&lt;pre style=&quot;font-size: 10px;&quot;&gt;aws_deploy.yml&lt;/pre&gt;" style="text;html=1;align=center;verticalAlign=middle;resizable=0;points=[];autosize=1;strokeColor=none;fillColor=none;fontSize=10;" parent="1" vertex="1">
                    <mxGeometry x="440" y="-62.5" width="110" height="50" as="geometry"/>
                </mxCell>
                <mxCell id="MfYopfng2UjAwjtcQSiA-95" value="&lt;pre style=&quot;font-size: 10px;&quot;&gt;chatgpt_code_review.yml&lt;/pre&gt;" style="text;html=1;align=center;verticalAlign=middle;resizable=0;points=[];autosize=1;strokeColor=none;fillColor=none;fontSize=10;" parent="1" vertex="1">
                    <mxGeometry x="540" y="-62.5" width="160" height="50" as="geometry"/>
                </mxCell>
                <mxCell id="MfYopfng2UjAwjtcQSiA-101" value="" style="shape=image;verticalLabelPosition=bottom;labelBackgroundColor=default;verticalAlign=top;aspect=fixed;imageAspect=0;image=https://upload.wikimedia.org/wikipedia/commons/1/13/ChatGPT-Logo.png;" parent="1" vertex="1">
                    <mxGeometry x="592" y="-112.5" width="40" height="22.5" as="geometry"/>
                </mxCell>
                <mxCell id="MfYopfng2UjAwjtcQSiA-103" value="&lt;pre&gt;&lt;b&gt;https://sila-prod-bucket.s3-website-ap-southeast-2.amazonaws.com/&lt;/b&gt;&lt;/pre&gt;" style="text;html=1;align=center;verticalAlign=middle;resizable=0;points=[];autosize=1;strokeColor=none;fillColor=none;" parent="1" vertex="1">
                    <mxGeometry x="209.5" y="371" width="490" height="50" as="geometry"/>
                </mxCell>
                <mxCell id="MfYopfng2UjAwjtcQSiA-107" value="" style="rounded=1;whiteSpace=wrap;html=1;fontSize=13;" parent="1" vertex="1">
                    <mxGeometry x="89" y="520" width="191" height="90" as="geometry"/>
                </mxCell>
                <mxCell id="MfYopfng2UjAwjtcQSiA-108" value="" style="shape=image;verticalLabelPosition=bottom;labelBackgroundColor=default;verticalAlign=top;aspect=fixed;imageAspect=0;image=https://d2908q01vomqb2.cloudfront.net/7719a1c782a1ba91c031a682a0a2f8658209adbf/2021/01/15/cdk-logo6-1260x476.png;" parent="1" vertex="1">
                    <mxGeometry x="99.99999999999994" y="525" width="132.45" height="50" as="geometry"/>
                </mxCell>
                <mxCell id="MfYopfng2UjAwjtcQSiA-110" value="&lt;pre&gt;&lt;font style=&quot;font-size: 11px;&quot;&gt;Infrastructure As Code (IaC)&lt;/font&gt;&lt;/pre&gt;" style="text;html=1;align=center;verticalAlign=middle;resizable=0;points=[];autosize=1;strokeColor=none;fillColor=none;" parent="1" vertex="1">
                    <mxGeometry x="80" y="570" width="210" height="50" as="geometry"/>
                </mxCell>
                <mxCell id="MfYopfng2UjAwjtcQSiA-111" value="" style="rounded=1;whiteSpace=wrap;html=1;fontSize=13;" parent="1" vertex="1">
                    <mxGeometry x="301.78" y="520" width="228.22" height="90" as="geometry"/>
                </mxCell>
                <mxCell id="MfYopfng2UjAwjtcQSiA-113" value="" style="shape=image;html=1;verticalAlign=top;verticalLabelPosition=bottom;labelBackgroundColor=#ffffff;imageAspect=0;aspect=fixed;image=https://cdn1.iconfinder.com/data/icons/ionicons-fill-vol-2/512/logo-javascript-128.png" parent="1" vertex="1">
                    <mxGeometry x="310" y="525" width="45" height="45" as="geometry"/>
                </mxCell>
                <mxCell id="MfYopfng2UjAwjtcQSiA-114" value="" style="shape=image;verticalLabelPosition=bottom;labelBackgroundColor=default;verticalAlign=top;aspect=fixed;imageAspect=0;image=https://www.svgrepo.com/show/376344/python.svg;" parent="1" vertex="1">
                    <mxGeometry x="354" y="517.5" width="60" height="60" as="geometry"/>
                </mxCell>
                <mxCell id="MfYopfng2UjAwjtcQSiA-115" value="" style="shape=image;verticalLabelPosition=bottom;labelBackgroundColor=default;verticalAlign=top;aspect=fixed;imageAspect=0;image=https://banner2.cleanpng.com/20180812/ohs/kisspng-bash-unix-shell-unix-shell-scalable-vector-graphic-github-adentintime-holberton-systemengineering-5b70ee2d95ccb5.8702200715341276616136.jpg;" parent="1" vertex="1">
                    <mxGeometry x="413.3" y="530.5500000000001" width="38.89" height="38.89" as="geometry"/>
                </mxCell>
                <mxCell id="MfYopfng2UjAwjtcQSiA-116" value="" style="shape=image;verticalLabelPosition=bottom;labelBackgroundColor=default;verticalAlign=top;aspect=fixed;imageAspect=0;image=https://logowik.com/content/uploads/images/azure-sql-database6354.jpg;" parent="1" vertex="1">
                    <mxGeometry x="452.19000000000005" y="522.5" width="66.61" height="50" as="geometry"/>
                </mxCell>
                <mxCell id="MfYopfng2UjAwjtcQSiA-117" value="&lt;pre&gt;&lt;font style=&quot;font-size: 11px;&quot;&gt;Languages&lt;/font&gt;&lt;/pre&gt;" style="text;html=1;align=center;verticalAlign=middle;resizable=0;points=[];autosize=1;strokeColor=none;fillColor=none;" parent="1" vertex="1">
                    <mxGeometry x="370" y="570" width="80" height="50" as="geometry"/>
                </mxCell>
                <mxCell id="LO5UBEyFP2jZVA9CkqRd-2" style="edgeStyle=orthogonalEdgeStyle;rounded=0;orthogonalLoop=1;jettySize=auto;html=1;entryX=-0.014;entryY=0.514;entryDx=0;entryDy=0;entryPerimeter=0;" parent="1" source="MfYopfng2UjAwjtcQSiA-66" target="MfYopfng2UjAwjtcQSiA-65" edge="1">
                    <mxGeometry relative="1" as="geometry"/>
                </mxCell>
                <mxCell id="LO5UBEyFP2jZVA9CkqRd-3" style="edgeStyle=orthogonalEdgeStyle;rounded=0;orthogonalLoop=1;jettySize=auto;html=1;entryX=0;entryY=0.5;entryDx=0;entryDy=0;entryPerimeter=0;" parent="1" source="MfYopfng2UjAwjtcQSiA-65" target="MfYopfng2UjAwjtcQSiA-2" edge="1">
                    <mxGeometry relative="1" as="geometry"/>
                </mxCell>
                <mxCell id="LO5UBEyFP2jZVA9CkqRd-5" value="" style="shape=image;verticalLabelPosition=bottom;labelBackgroundColor=default;verticalAlign=top;aspect=fixed;imageAspect=0;image=data:image/jpeg,/9j/4AAQSkZJRgABAQAAAQABAAD/2wCEAAkGBwgHBgkIBwgKCgkLDRYPDQwMDRsUFRAWIB0iIiAdHx8kKDQsJCYxJx8fLT0tMTU3Ojo6Iys/RD84QzQ5OjcBCgoKDQwNGg8PGjclHyU3Nzc3Nzc3Nzc3Nzc3Nzc3Nzc3Nzc3Nzc3Nzc3Nzc3Nzc3Nzc3Nzc3Nzc3Nzc3Nzc3N//AABEIAMAAzAMBEQACEQEDEQH/xAAcAAEAAQUBAQAAAAAAAAAAAAAABgEEBQcIAwL/xABGEAABAwMBBQUEBQgHCQAAAAABAAIDBAURBgcSITFBE1FhgZEUcaGxFSIyQlIjcnOCkqKywRckNENiY9EWM0RTVJPS4fH/xAAaAQEAAwEBAQAAAAAAAAAAAAAAAQIDBAUG/8QALxEBAAIBAwMBBgYCAwAAAAAAAAECAwQRMQUSIVETIjJBkaEVQnGBsdEzUkNT8P/aAAwDAQACEQMRAD8A3ggICAgICAgICAgICAgICAgICAgICAgICAgICAgICAgICAgICAgICAgICAgICAgICAgICAgICAgICAgICAgICAgICAgICAgICAgICAgICAgICAgICAgICAgICAgICAgICAgICAgICAgICAgICAgICAgICAgICAgICAgICAgICAgICAgICAg86ieGmjMlRKyJjRkuecAIhErhtN0lQO3DdG1DuX9VjdKPVoIVorMm8Md/TBpjIGK4DvNOf/qnslHdDK2raNpa6StihubYZXHDWVMbocnuG8BnyUdkpiUsa4OALSCCOBCql4V9ZTUFK+qrZ46enjGXyyuDWtHiU2GIj1ppaSRrI9RWtz3Hda0VbCST05psM805GQc+KCqCzudzoLVTipudZT0kG9u9pPIGNyeQyU2GOpdYaaq546elv9tlnkO6yNlSxznHuABTYZwKBVSLK6XW32mFs90raejhJ3RJPIGAnuyU2FlQaq09cqplLb73b6mof9mKKoa5x8gUGZCDGXu/2mxxiS7XCClB+y2R4DnHwHMqYg3RSba5pZhIifWygfeZSub/ABAK3ZKvdD2otq2k6mQMfWzU5PWene1v7WMBOyTuhLrZcqG6UwqLbVwVUJ5PheHD4Kiy7QEBBVAQUcMoOadb1lzvmrLjTzS1FW2KrfHDTty5rA04GGjh5+K2r4hnMrm3bN9VV7Q8W3sGH/qJAw+id8Havp9kuqI270TKSQ/hEwHzUd8HbKI3e0V1oqjS3Wkkp5cfZkHBw8D1CvExPCPKd7JdZVNDdIbFcJnSUNSd2nLzkwv57ufwnj7vNUvXxutEts6utgvGmrjQdZYDucPvDiPiFnWfK08OXnt3g5krcdHju6Fb8snS+zq6OvGjLXVSO3phCIpT3vZ9V3xBWEx5axwkZUbpaV2815mvVqtjSd2ngdO9vQued1vnhj/VaUhSzV5JAy0kEcQRzHj6rTZR1Xp64C62Ogrx/wARTskI7iRxHqsJ5axwvyoS0XtxuXtWpaS3gkso6ffI6Fzz8wG/vLWkbQzs8Ni1rNbqt1Y9pMdDCXZPIudwHml58FeWzNo+rBpazB1OGvr6kllO13ENOOLj4BUrXda07Of3ur71ct+Qz1twqHYBxvPefDw8Oi14hTlMKHZNqapia+ZtNTZ4hskmT8FXvhPbJV7J9UQNLomUtRjoyUA/FT3wdsrXQ1vvVh1/a4pqSqpHSylkzS0gSM3Hfa6EdUtMTBWJ3dEtWLRVAQEBBQoLaChpIJ5J4KWGOaQ5fIyMBzveU3FyEAoIRtdtMVw0bVVLmDt6EdvG7HEY5jzVqTtKtuHP8NR7HNFUjgYJGzD9VwP8lszdZU7y+nikPNzAfULnbOa9f2v6H1dcqRrcRuk7WIY4bruIC2rPhnMNi7Bblv2y52xzsmnnbOwdzJB/5NcfNUvG0rVbUKos5o2j3IXPW15n38xRTGBh7hGA0/vBx81tWPDOeVnqSzPssluZKC01dtgq3Z+694O83yI+Kms7olufYtX+16MZTuP16Od8RHXBO8P4j6LK8bSvXhO3kAZPJVWcuasuJu2qbrXBx3Zalwb+Y36gI94bnzW9Y8M5ny3HsWtPsOlXVsjcSV0pkz/hHBqyvO8rVhD9urpDqW3hw+o2lduebhn+Svj+aLrbYk+kbq2UVJb27qc+z578/Wx5YS/CK8t9DksmiqD5cASCQDjl4IKhBVAQEBAQYu+3+2WCk9qu1WyCPk0Hi5x7gOZUxEyiZiEArts9tjlLaG11k7RykfusB8ic/BXjHKvfC2i21xZ/K2SbH+XK0n44T2Z3moNqNkvml7lQNgq6apqIHMjZLHkEnxbkBIpO5N42acqhiml79w/Ja/NSHW9F/Yqf9E35BczZqbbvat2W3XdjSQQaeQgcurSfj6LTHKlka2PXL2DXEEL3YZXQvp93pvAb7T+679pTeN4RXlvu51sduttXXTf7qmhfM73NBJ+Syhpu5atdHLe7vSUUpLpK+qZHK4c/ruG870JK2nxDKOW1tvNu/qVmuUbMdjK+ldgcmvG8PQx4/WVaLWWGwev7O63S3uPCaFszePVpwf4/gmSCrZutLn9D6VudeCA+Knd2YPV5GGj1wFSvK08OZKGjfU1FPRQZc+RzYmgc+PBb7snVlqoo7dbaaiiADIImxjHgFzzy1jhDdrWlJtQWmOroGb9dRZLWDnIw/aaPHr5K9J2lFo3aFY6WmqGujdLDPE7IcCWvY4fEFas0+sO1q929rYbnDFcYm8N8nckx355E+irNKzwt3p7ZtqumrjhlTNJbpTzbVNw0frD6vxWc0lbuTenniqImywSMkjdxDmHIKqs9UBAQEBBj9QXSGy2aruVTkx00ZkLRzcRyA8SeCmBzHfbzW325S3G5Sl8z84b92Jv4W+HzW8RtDKZ3TnSGyqpvNFFX3aqfSQSjejiY0F5b3nPJZzfZaKpZ/Q7YNzAqa3Pf2ij2knYjmrNlNLZrNWXSlukzhTRmQxSxjiB4hTF95Jq1VU/2aXwY75LT5qfN1xQ/2Kn/AETfkudsj+0m1fS+jrhC1oMsTO3j/Obx+WVNZ2lE8OcrbXutlyo7kzINLOyY46hrgSPMAjzW0wyhvza1c202gqjs38a50cDCOocd537rXLKseWluGstjlv8Ab9c08zmndoIJKg928R2YH75Pkr34Vq2ztSt30loS6xtaXSQRe0s78xkP+IaR5rOs+V5aV2bXH6N1ta5ifqSSdg73PG7n1I9FtbzDOvLZG3a49hp6jtzT9asqQ57e9jPrfxbnqs6QvbhCNkNq+ktZQzObmKiYZyfHk34q158K15dCBZNA80EY1HoWw6hLpKyk7KoP9/Adxx9/epi0wiY3a+vGxqthy+zXCOoA5R1Dd13qOCv3wp2eiAXuwXWwyiO7UUsGeAeeLHe48leJiUTEwv8ARerqzSdex8b3utznf1mmJOC3q5o6O6+PyWr3JiXSlNNHUU8c8Lg6ORoexw6g8QsGj1QEBAQQPbY57dBVAbnBqIA7Hd2jVenKtmhKYD2qASD6hlZve7IW0s3WVOIxEwQ47PdAbjljHBczaHqgg+167Q2/R1TSucO3rh2MbevHmfIK1I3lW3Dnip400uB9x3yW8cs4dbW1wfQUz2nIMLSPRczZ7yNa5ha4AtcMEHqEHLOp7YbNqG4W48oZnBuerTxB9MLeJ3hjLOaq1AbnovSlDvEvp4JO3BPHLD2TT5hrj5qIr5laZ8JrsEt+7Q3e5uaQZp2Uzc/hY3eOPOTHkq5E0bSmY2aJ8Ujcse0tcD1BHFZ/NdyjPTy2a5S0xLhLQVDot7rmNxGfhnzW8TuylLdrF8bfNRUjoXZhgoY3NA+6+Qb7h6biikbQm0p5sPtXs2n6i5SNw+slw3P4G8Picql58rVhskKiyqAgIMVqeipLhYa6nrmNdCYHk7w+yQCc+SmJ8oly0cbxxxHf3+K3ZS6W2cb/APsHYe05+wxY926MfBY25awkiqkQEBBhdZ2Uah01XWvIa+aP8k48hIOLT+0ApidpJjdzHVU81JUy0tZE6GeJxZIx3NpC35YtiaW2s1Vpt8VFdaB1ayJobHLG8B+OgIPDh3qns91osyFx2zvewi2WYseeTqiUcPHDc5T2fqd6J263ah2jXmSolmMu4071Q8Yji7mtHvU7xU2mUXqaeWlqZaaobuzQvLHtPQhWVb+2P3iW7aPhZO1+/RuNOJHcpGjkQevAgHxysbx5a14TcqqWkNudq9nvlJc2s+rVw7jyPxs/9Eei0pKloa0J4eAC0UdI7L7d9G6FtMThiSaL2mQHmDIS/HlvAeSwty1jhKSoS512tW/2DXda5oO5WRx1LfeRuH4sz5rak7wztyiLGSTSNjaS6RxDB14ngFbfZV1Rp22stFjobexoaIIWtIH4scfjlYTy1jhkHKEtJ7TtSX6x67d9HV81PEKaNzI8ZY/i7PA8+i1rETClpmJfVs2zXCFjWXS2QTkDjJA8tJ/VPD4pOOEd0sp/TXQ7ufoOt3v0kePmo9mnvRXVm0y66gpH0VPAyho5ODw1xc947ieimKbImyP6R0zVaqusdFA1zaYOzUzjlEzqPzscvflTadoREbunKSCOmpooIGhsUTQxjR0AHALFq9UBBRAQUKCM6p0NZtTkS1sLo6pow2phOH+ff5q0WmETXdCZdirRJ+QvTyz/ADIhn4KfaK9jJWnY5aKaUSXGtqa3HHs+DG/Dik3lMVbBoaGlttKymoaeOCFnBrI24AVFkcvWz+w3y8MulbTvMuB2rGuw2XHLeHVWi0q9qUUlNBRwNp6WJkUTBhrGDAAVVnsgw+qNO27U1A2iukT3Rtf2jHRuLXNcO4hTEzBsijNkGmN4GQVj25GWmd2D4HwVu+VYqn8TGxsDGANa0YDRyA6Kiz7QRvVmi7RqqSnlubJRLThzY5IpC04OMg458laLTHCJjdi7Vsu05bLhBWxsqZZIHh7GyTEt3hyyOqTeZRFdk3aqrKoMVftPWq/QdjdaOOcD7LiMOb7j0UxMwiY3QS4bGbXK4m3XGrph0Y7Dx6nirxk9Vez0Ys7FarPC9Q7v6A5+ae0O1lLZsatkMgdcrhU1TesbMMafMcVE39DtbDtNpoLPSNpLbTR08LfusbjPvVN9116EFUFEFUBAyEBAQEBAQEBAQEBAQEBAQEBAQMoPlz2sGXuDfecKJtEcymImeHmamn/58X7YVfa0/wBoW9lf/WX2yRj/ALD2u9xyrRaJ4lWazHMPtSgQUQW1xfUR0cj6RgfMBlrT1WGptlrimcUb2a4a0teIyTtDE27UMEruyqx2E3I55E/yXm6XrGPJ7uWO2zszdOvX3sXmGdY4OAc0hwPIhevExPmHnzG0+X0rIEBAQAgICAgICAgBBVBRAQfL3boJwTgcgotO0TJEbzsjFXcrvVvcyipZYmdDuYcfVfO59brs0zGGkxH6f29nFpdLijfLaJljX2u8TEukhneTz3nD/VedbQ9QyfFWZ/eP7dcarS14mHhLaa+FpdJSPDfAA/Jc9+naqkb2pLWurwXnxfytY5pojvRSOZjuOOKwplyY/NZmGtqVv4tG7YdtkdNQU8r/ALb42ud7yAvvNNeb4aWtzMR/D5XNWKZbVjjeVyt2YgFBhbzY4q4GWL8nUD73R3vXk6/plNTHdXxb+XdpddbD7tvMI4ypuNon7Iucwjmx3FpXz9c+r0Fu2fH68PXnFp9VXfn+WbotTwPwKuMxO/E3iF7Om65iv4yx2z9nnZumZK/453hnKaphqW70EjXjwK9jHmpkjek7vOvjtSdrQ9lqoICAgICAgICAgICAgIPiaWOJhdK9rG97jhUvetI3tO0LVrNp2rHlharUlFCd2Lem7y3gAvLz9Z0+Odo8u7H03NeN58MtTzMnp2TMzuvbvDPcvSxZa5McXrxLivSaWms/Jr2Vonq3NiHF78NHvPBfB5K+0zzFfnPh9VWe3HEz8obFp2COBkbeTWgegX32OvbSIfKXnutNvV6K6qqAgoeSC1raKCtj7OojDh0PUe4rnz6bHnr25K7tcWa+Kd6Silz07UUhMlPmaLnwH1h/qvmdZ0bLh97F70fd7en6jTJ4v4liGPkheTG9zHg8cHBXk1vfFPjeJd9oraPMbwylNqKvg4Pc2Udzxx9V6eDrWox/F7ziydNw34jZlqfVNO7HtEL4z3t4hepi67hn44mHDfpWSPgndk4LvQT/AGKlgJ6O4L0cWv0+X4bQ476TNTmq9jkZJxje1w/wnK6q3rbiWE1mvMPtWQICAgZCAgo5waMuIA7yVEzEcpiJnhZ1FzooOMtTGPcc/Jc+TV4Mfm14htTTZr8VljZ9TUceexZJKfQLzsvW9PWPG8uqnS8s+bbQxVVqWslyImshHhxK8zN1zPfxjjZ3Y+mYq+bTuxbn1VdNul0k0h5N5rzJvn1NtvNpl2xXFhrxtDP2rTeCJa/B7ohy817ui6LFZi+fn0/t5ep6lvHbi+rMXeoFFapntG7hu60d2V62tzV0+ntb9nBpcfts0RKNaYojU3ATObmOH6xz+LoP5r5zo2mnLn9pbiv8/wDvL2Oo5ox4u2OZTVvJfYPnlUFEBAQEFCgx9ws9JXAmSLdk/GzgVw6np+DUfFXafV04NXlw8SjtdpqsgJdTETsHTk5fP6nomes7457o+71sPUsV/jjaWGlikhduzMcx3c4YXj5MV8c7Xrs9Gl63+Gd3zwWcLS+mvezG45zfccLSuS9Y92ZVmsT8lwy510fBtXMB3by6a9Q1URtF5Y20uG0+awuGX+5M/v8APvaCumOsayI+L7Mp0Gnn5PQajuXWVh/UCn8b1frH0V/DtP6fc/2juR5SR/sBPxvWesfQ/DtP6fd8u1Bcnf34H5rAFWes6yfmmOn6f0+63fdrg/nVy47g5Y26lqrc3lpGkwV/LC2fNNIcvke4/nFc1s+S3M/dtFK14h8HxCxaPampKirOKeB8g5ZA4DzW+DTZs3+Ou7LJmx4/Np2Zyh0tI4h1bLut/Azn6r3NN0KZ2nNP7R/bzc3VKx/jr59Uio6Gno2BtPC1nj1PmvfwaXDgjbHXZ5OXPkyzvey5C3hkj2pRUVtXT0FNG4/fc7HDz9y8Pq0Zc96YMccvU0E48NLZbyy1roY7fSNhj444ud+I9SvU0mmpp8UUq4dRntmyTey8XSxEBAQEBAQVQUKDxmp4ZxiaNrx3OblZ3xUyRtesStW9q/DLF1OmqCY5ja+E/wCA8PQrzM3RdNk8xvX9Hbj6jnp4md2Mn0pM3JgqWu7g9uPivOydAvHwXj93ZTq1Z+Oqyk09c2H6sLX/AJjx/PC48nRtXWfFd/0n+3RXqOnt89lu+03GP7VJL6Z+S57dN1VeaS2jV4J4tDzNBWg8aSo/7R/0WU6PUf8AXP0lpGfF/vH1gFvrXcqOfzjKmNFqZ/45+iJ1GKPzx9XsyzXJ/wBmjk8yB81tXpmrtxSfsztrNPHNl1Fpq4SfabHGOu8/j8F1V6Hqbc7Qwt1LTxxvK+h0nxzUVJI7o24+a7cfQI/Pf6Q5rdVn8tfuydPYLfTkEQb7u+Q5+C9LD0rS4vy7/q48mvz5PzbfoybGhgw1oaO4BehWIiNohyTMzy+lKBAQUxxzjio287nlUKQQEFUBAQEBAQEBAQEBAQEBAQEBAQEBAQEBAQEBBRAQEBAQEBAQEBAQEBAQEBAQAgICAgICAgICCqCiAgqgICCiCqCiAgqEBBRAQVCAgogICCqCiAgIKoKICCqAgICAgICAgICAgICAgICAgICAgICAgICAgICAgICAgICAgICCiAEBACCqAgICCiAgIKhAQEBB/9k=;" parent="1" vertex="1">
                    <mxGeometry x="785" y="370" width="42.5" height="40" as="geometry"/>
                </mxCell>
            </root>
        </mxGraphModel>
    </diagram>
</mxfile>